<svg width="40" height="40" viewBox="0 0 40 40" fill="none" xmlns="http://www.w3.org/2000/svg">
  <path d="M34.4431 12.2207H12.2209C10.0543 12.2207 8.33203 13.9429 8.33203 16.1096V18.3318H38.332V16.1096C38.332 13.9429 36.6098 12.2207 34.4431 12.2207Z" fill="#969493"/>
  <path d="M6.66602 17.3325V15.0547C6.66602 12.5547 8.66602 10.5547 11.166 10.5547H31.7771V9.44358C31.7771 7.27691 30.0549 5.55469 27.8882 5.55469H5.5549C3.38824 5.55469 1.66602 7.27691 1.66602 9.44358V23.888C1.66602 26.0547 3.94379 27.7769 6.11046 27.7769H6.66602V17.3325Z" fill="#969493"/>
  <path d="M8.33203 20V30.5556C8.33203 32.7222 10.0543 34.4444 12.2209 34.4444H34.4431C36.6098 34.4444 38.332 32.7222 38.332 30.5556V20H8.33203ZM33.332 31.6667C32.6654 31.6667 32.0543 31.3889 31.6654 30.8889C31.2765 31.3333 30.6654 31.6667 29.9987 31.6667C28.7765 31.6667 27.7765 30.6667 27.7765 29.4444C27.7765 28.2222 28.7765 27.2222 29.9987 27.2222C30.6654 27.2222 31.2765 27.5 31.6654 28C32.0543 27.5556 32.6654 27.2222 33.332 27.2222C34.5543 27.2222 35.5543 28.2222 35.5543 29.4444C35.5543 30.6667 34.5543 31.6667 33.332 31.6667Z" fill="#969493"/>
</svg>
