<svg width="40" height="40" viewBox="0 0 40 40" fill="none" xmlns="http://www.w3.org/2000/svg">
  <path d="M27.8327 5.55469H5.5549C3.38824 5.55469 1.66602 7.27691 1.66602 9.44358V23.888C1.66602 26.0547 3.38824 27.7769 5.5549 27.7769H6.66602V17.3325V15.0547C6.66602 12.5547 8.66602 10.5547 11.166 10.5547H31.7771V9.44358C31.7216 7.27691 29.9993 5.55469 27.8327 5.55469Z" fill="#969493"/>
  <path d="M12.2218 34.4438H16.0551C16.0551 30.166 12.6107 26.666 8.27734 26.666V30.5549C8.3329 32.7216 10.0551 34.4438 12.2218 34.4438Z" fill="#969493"/>
  <path d="M8.33203 16.1096V19.9429C12.6098 19.9429 16.0543 16.4985 16.0543 12.2207H12.2209C10.0543 12.2207 8.33203 13.9429 8.33203 16.1096Z" fill="#969493"/>
  <path d="M38.332 24.9985V21.6096C33.1654 21.6096 28.9431 17.3874 28.8876 12.2207H17.7765C17.7765 17.3874 13.5543 21.6096 8.33203 21.6096V24.9985C13.4987 24.9985 17.7765 29.2207 17.7765 34.4429H28.8876C28.8876 29.2207 33.1654 24.9985 38.332 24.9985ZM23.332 27.7763C20.8876 27.7763 18.8876 25.7763 18.8876 23.3318C18.8876 20.8874 20.8876 18.8874 23.332 18.8874C25.7765 18.8874 27.7765 20.8874 27.7765 23.3318C27.7765 25.7763 25.7765 27.7763 23.332 27.7763Z" fill="#969493"/>
  <path d="M30.5547 34.4438H34.388C36.5547 34.4438 38.3325 32.7216 38.3325 30.5549V26.666C34.1102 26.666 30.5547 30.166 30.5547 34.4438Z" fill="#969493"/>
  <path d="M34.4447 12.2207H30.6113C30.6113 16.4985 34.1113 19.9429 38.3335 19.9429V16.1096C38.3335 13.9429 36.6113 12.2207 34.4447 12.2207Z" fill="#969493"/>
</svg>
