<svg width="160" height="48" viewBox="0 0 160 48" fill="none" xmlns="http://www.w3.org/2000/svg">
    <mask id="mask0" mask-type="alpha" maskUnits="userSpaceOnUse" x="0" y="0" width="160" height="49">
        <path d="M80 0.000244141H160V48.0002H0V0.000244141H80Z" fill="white"/>
    </mask>
    <g mask="url(#mask0)">
        <path fill-rule="evenodd" clip-rule="evenodd" d="M154.308 48.0002H5.60526C4.11942 47.9977 2.69516 47.3985 1.64451 46.3338C0.593862 45.2691 0.00250493 43.8259 0 42.3202L0 5.67171C0 2.54424 2.51579 0.000244141 5.60526 0.000244141H154.308C157.396 0.000244141 160 2.54424 160 5.67171V42.3202C160 45.4466 157.396 48.0002 154.308 48.0002Z" fill="#969493"/>
    </g>
    <path fill-rule="evenodd" clip-rule="evenodd" d="M158.853 42.3214C158.852 42.9255 158.735 43.5238 158.506 44.0818C158.278 44.6399 157.943 45.1469 157.521 45.5737C157.099 46.0006 156.598 46.339 156.047 46.5696C155.496 46.8002 154.906 46.9185 154.309 46.9176H5.60416C4.39942 46.9193 3.24335 46.4361 2.39018 45.5741C1.53702 44.7122 1.05664 43.5422 1.05469 42.3214V5.67069C1.05636 4.44913 1.53663 3.27823 2.38993 2.41535C3.24323 1.55247 4.39972 1.06824 5.60521 1.06909H154.307C154.904 1.06867 155.495 1.18739 156.046 1.41845C156.597 1.64951 157.098 1.9884 157.52 2.41574C157.942 2.84308 158.277 3.3505 158.506 3.909C158.734 4.4675 158.852 5.06613 158.852 5.67069L158.853 42.3214Z" fill="#2D2928"/>
    <path d="M59.3887 32.7552H53.7599L52.3935 36.512H49.9199L55.4207 22.4768H57.7567L63.3887 36.512H60.7999L59.3887 32.7552ZM54.4767 30.8352H58.6687L57.1679 26.816C56.9631 26.2624 56.7583 25.648 56.5599 24.976C56.3775 25.5712 56.1791 26.176 55.9679 26.7968L54.4767 30.8352Z" fill="white"/>
    <path d="M64.3839 28.6177C64.3839 27.8433 64.3583 26.99 64.3071 26.0577H66.5471C66.6313 26.4965 66.689 26.94 66.7199 27.3857C67.1119 26.916 67.6008 26.5367 68.1531 26.2737C68.7055 26.0108 69.3082 25.8705 69.9199 25.8625C70.6372 25.8512 71.3415 26.054 71.9429 26.445C72.5442 26.8361 73.0153 27.3975 73.2959 28.0577C73.6896 28.9653 73.8765 29.949 73.8431 30.9377C73.8675 32.0157 73.6487 33.0854 73.2031 34.0673C72.8304 34.8823 72.2217 35.5667 71.4559 36.0321C70.668 36.4874 69.7706 36.7187 68.8607 36.7009C68.1448 36.7005 67.434 36.5793 66.7583 36.3425V40.6721L64.3647 40.8769L64.3839 28.6177ZM70.6751 33.9521C71.1615 33.2961 71.4079 32.3521 71.4079 31.0721C71.4079 29.903 71.2053 29.0497 70.7999 28.5121C70.6168 28.2613 70.3755 28.0586 70.0969 27.9215C69.8182 27.7844 69.5104 27.7169 69.1999 27.7249C68.7527 27.7189 68.3117 27.8292 67.9199 28.0449C67.5038 28.2806 67.1252 28.5773 66.7967 28.9249V34.5249C67.0619 34.6499 67.3413 34.7424 67.6287 34.8001C67.9379 34.867 68.2532 34.9013 68.5695 34.9025C68.9712 34.9266 69.3728 34.8526 69.7396 34.6871C70.1064 34.5215 70.4274 34.2693 70.6751 33.9521Z" fill="white"/>
    <path d="M75.2992 28.6177C75.2992 27.8433 75.2736 26.99 75.2224 26.0577H77.4624C77.5492 26.4962 77.608 26.9398 77.6384 27.3857C78.5685 26.3702 79.6352 25.8625 80.8384 25.8625C81.5556 25.8512 82.26 26.054 82.8613 26.445C83.4627 26.8361 83.9338 27.3975 84.2144 28.0577C84.608 28.9653 84.795 29.949 84.7616 30.9377C84.791 32.0145 84.5777 33.0841 84.1376 34.0673C83.764 34.8827 83.1542 35.5672 82.3872 36.0321C81.5995 36.4879 80.7019 36.7192 79.792 36.7009C79.076 36.7005 78.3653 36.5793 77.6896 36.3425V40.6721L75.296 40.8769L75.2992 28.6177ZM81.6 33.9521C82.0864 33.295 82.3296 32.335 82.3296 31.0721C82.3296 29.903 82.128 29.0497 81.7248 28.5121C81.5417 28.2613 81.3004 28.0586 81.0217 27.9215C80.7431 27.7844 80.4353 27.7169 80.1248 27.7249C79.6777 27.7195 79.2368 27.8298 78.8448 28.0449C78.4287 28.2806 78.0501 28.5773 77.7216 28.9249V34.5249C77.9872 34.649 78.2664 34.7414 78.5536 34.8001C78.8628 34.867 79.1781 34.9013 79.4944 34.9025C79.896 34.926 80.2974 34.8518 80.6641 34.6863C81.0308 34.5208 81.3519 34.2689 81.6 33.9521Z" fill="white"/>
    <path d="M89.1616 35.8495C88.139 35.2887 87.3084 34.4336 86.7776 33.3951C86.1974 32.2217 85.9118 30.9245 85.9456 29.6159C85.9041 28.2159 86.2354 26.8299 86.9056 25.5999C87.5108 24.5326 88.4197 23.6693 89.5168 23.1199C90.6698 22.5566 91.9393 22.2726 93.2224 22.2911C94.0005 22.2878 94.7762 22.378 95.5328 22.5599C96.2404 22.7265 96.9273 22.9712 97.5808 23.2895L96.9728 25.1295C95.8409 24.5585 94.5955 24.248 93.328 24.2207C92.4333 24.2058 91.5504 24.4265 90.768 24.8607C90.0256 25.2869 89.429 25.927 89.056 26.6975C88.6271 27.6114 88.4188 28.6132 88.448 29.6223C88.4321 30.5315 88.5907 31.4353 88.9152 32.2847C89.2099 33.0366 89.7281 33.68 90.4 34.1279C91.1655 34.6069 92.0578 34.8434 92.96 34.8063C93.4275 34.8052 93.8942 34.7656 94.3552 34.6879C94.8013 34.617 95.2396 34.5034 95.664 34.3487V31.5103H92.4064V29.6511H97.9776V35.5519C97.1693 35.9286 96.3229 36.2172 95.4528 36.4127C94.5901 36.6115 93.7077 36.7124 92.8224 36.7135C91.5483 36.7441 90.2876 36.4466 89.1616 35.8495Z" fill="white"/>
    <path d="M106.48 36.5121C106.389 36.0551 106.334 35.5919 106.314 35.1265C105.914 35.5916 105.425 35.9723 104.877 36.2465C104.257 36.5602 103.571 36.7184 102.877 36.7073C102.309 36.7144 101.746 36.593 101.232 36.3521C100.743 36.1226 100.333 35.7513 100.058 35.2865C99.7519 34.7597 99.6 34.1577 99.6192 33.5489C99.6013 33.0871 99.6911 32.6275 99.8816 32.2065C100.072 31.7855 100.358 31.4146 100.717 31.1233C101.446 30.5195 102.663 30.2177 104.368 30.2177C105.003 30.2174 105.637 30.2623 106.266 30.3521V30.1473C106.266 29.2257 106.069 28.575 105.677 28.1953C105.208 27.7915 104.599 27.5881 103.981 27.6289C103.428 27.6356 102.877 27.7109 102.342 27.8529C101.813 27.9806 101.296 28.1585 100.8 28.3841L100.422 26.6433C100.965 26.4117 101.529 26.2327 102.106 26.1089C102.831 25.9448 103.573 25.8632 104.317 25.8657C105.105 25.8441 105.889 25.9846 106.621 26.2785C107.264 26.563 107.788 27.0633 108.102 27.6929C108.495 28.5359 108.678 29.4614 108.637 30.3905V34.5505C108.637 34.9771 108.662 35.6321 108.714 36.5153L106.48 36.5121ZM105.046 34.5921C105.508 34.3777 105.922 34.0743 106.266 33.6993V31.7793C105.734 31.7165 105.2 31.6812 104.666 31.6737C103.676 31.6737 102.992 31.8337 102.614 32.1537C102.429 32.3102 102.282 32.5067 102.184 32.7285C102.086 32.9502 102.039 33.1914 102.048 33.4337C102.031 33.6431 102.059 33.8537 102.13 34.0514C102.201 34.249 102.314 34.4291 102.461 34.5793C102.773 34.8423 103.173 34.9763 103.581 34.9537C104.09 34.946 104.592 34.8223 105.046 34.5921Z" fill="white"/>
    <path d="M110.486 34.0032V21.6512L112.867 21.4592V33.5776C112.837 33.9087 112.917 34.2405 113.094 34.5216C113.186 34.62 113.298 34.6961 113.424 34.7444C113.549 34.7926 113.684 34.8117 113.818 34.8C114.035 34.7906 114.25 34.7541 114.458 34.6912L114.739 36.4064C114.471 36.5076 114.193 36.5805 113.91 36.624C113.605 36.677 113.296 36.7048 112.986 36.7072C111.319 36.7072 110.486 35.8059 110.486 34.0032Z" fill="white"/>
    <path d="M116.442 34.0032V21.6512L118.826 21.4592V33.5776C118.795 33.9087 118.875 34.2405 119.053 34.5216C119.144 34.62 119.257 34.6961 119.382 34.7444C119.508 34.7926 119.642 34.8117 119.776 34.8C119.993 34.7906 120.208 34.7541 120.416 34.6912L120.694 36.4064C120.428 36.5076 120.151 36.5805 119.869 36.624C119.562 36.6772 119.252 36.705 118.941 36.7072C117.277 36.7072 116.444 35.8059 116.442 34.0032Z" fill="white"/>
    <path d="M130.486 31.5904H123.648C123.757 33.7813 124.8 34.8768 126.778 34.8768C127.285 34.8742 127.791 34.814 128.285 34.6976C128.789 34.5802 129.283 34.4196 129.76 34.2176L130.285 35.856C129.053 36.4366 127.704 36.7278 126.342 36.7072C125.367 36.7353 124.4 36.5151 123.533 36.0672C122.781 35.6612 122.179 35.0269 121.811 34.256C121.405 33.3628 121.208 32.3888 121.235 31.408C121.209 30.3802 121.418 29.3601 121.846 28.4256C122.212 27.6326 122.803 26.9648 123.546 26.5056C124.307 26.0572 125.177 25.829 126.061 25.8464C126.937 25.8154 127.802 26.0581 128.534 26.5408C129.195 26.9992 129.707 27.6411 130.006 28.3872C130.336 29.1998 130.499 30.0703 130.486 30.9472V31.5904ZM128.154 30.0704C128.158 29.391 127.933 28.73 127.514 28.1952C127.324 27.9877 127.092 27.8244 126.832 27.7165C126.573 27.6087 126.293 27.5591 126.013 27.5712C125.729 27.5653 125.447 27.6193 125.186 27.7296C124.925 27.8399 124.69 28.004 124.496 28.2112C124.045 28.7369 123.768 29.3901 123.706 30.08L128.154 30.0704Z" fill="white"/>
    <path d="M132.298 28.6847C132.298 28.1119 132.269 27.2351 132.218 26.0607H134.458C134.496 26.3519 134.531 26.7007 134.57 27.1007C134.608 27.5007 134.627 27.8335 134.64 28.0863C134.881 27.6784 135.155 27.291 135.459 26.9279C135.723 26.6175 136.042 26.3583 136.4 26.1631C136.776 25.9601 137.198 25.8576 137.626 25.8655C137.95 25.8576 138.273 25.8975 138.586 25.9839L138.285 28.0575C137.91 27.949 137.516 27.9214 137.13 27.9766C136.744 28.0318 136.374 28.1684 136.045 28.3775C135.522 28.7737 135.067 29.2525 134.698 29.7951V36.5151H132.317L132.298 28.6847Z" fill="white"/>
    <path d="M139.917 40.7904C139.625 40.7432 139.337 40.6737 139.056 40.5824L139.491 38.8384C139.692 38.8926 139.896 38.9364 140.102 38.9696C140.333 39.0105 140.566 39.0319 140.8 39.0336C141.867 39.0336 142.66 38.352 143.181 36.9888L143.338 36.6016L139.498 26.0608H142.058L143.997 31.952C144.247 32.7098 144.45 33.4825 144.605 34.2656C144.787 33.5104 144.998 32.7552 145.245 32L147.213 26.0608H149.622L145.782 36.6496C145.492 37.5025 145.098 38.3162 144.608 39.072C144.234 39.6429 143.724 40.1115 143.123 40.4352C142.479 40.7496 141.769 40.9033 141.053 40.8832C140.672 40.8854 140.292 40.8543 139.917 40.7904Z" fill="white"/>
    <path d="M49.9199 9.11377H54.1759L54.0575 10.1442H51.1775V12.1378H53.9071V13.0978H51.1775V15.3058H54.2271L54.1215 16.3458H49.9199V9.11377Z" fill="white"/>
    <path d="M57.1168 12.6594L54.8768 9.11377H56.2976L57.8208 11.7186L59.4208 9.11377H60.8L58.56 12.6146L60.9824 16.3522H59.5424L57.8176 13.5042L56.0608 16.3522H54.6816L57.1168 12.6594Z" fill="white"/>
    <path d="M61.9009 9.11377H63.8529C64.7681 9.11377 65.4699 9.30044 65.9585 9.67377C66.2015 9.86497 66.3947 10.112 66.5217 10.3939C66.6488 10.6759 66.7058 10.9843 66.6881 11.293C66.7016 11.7339 66.5907 12.1697 66.3681 12.5506C66.1508 12.9086 65.8339 13.1955 65.4561 13.3762C65.0363 13.5746 64.5763 13.6732 64.1121 13.6642C63.7898 13.6596 63.4685 13.6264 63.1521 13.565V16.3522H61.9009V9.11377ZM65.0369 12.3458C65.1734 12.2147 65.2799 12.0555 65.3489 11.8793C65.418 11.703 65.448 11.5139 65.4369 11.325C65.4532 11.1439 65.4246 10.9616 65.3537 10.7941C65.2828 10.6267 65.1718 10.4793 65.0305 10.365C64.6703 10.1456 64.2512 10.0428 63.8305 10.0706H63.1521V12.6306C63.3898 12.6734 63.6305 12.698 63.8721 12.7042C64.2916 12.7357 64.7076 12.6077 65.0369 12.3458Z" fill="white"/>
    <path d="M67.9231 9.11377H69.1711V15.2834H72.1663L72.0607 16.3522H67.9231V9.11377Z" fill="white"/>
    <path d="M74.0673 15.9969C73.5428 15.7018 73.1191 15.2558 72.8513 14.7169C72.5602 14.1196 72.4164 13.4612 72.4321 12.7969C72.4168 12.1027 72.5705 11.4152 72.8801 10.7937C73.1638 10.2335 73.6099 9.77177 74.1601 9.46891C74.776 9.14633 75.4653 8.98973 76.1601 9.01451C76.817 8.99687 77.4671 9.15249 78.0449 9.46571C78.5662 9.76187 78.9865 10.2078 79.2513 10.7457C79.5366 11.3368 79.6781 11.9871 79.6641 12.6433C79.6814 13.3452 79.5265 14.0407 79.2129 14.6689C78.9264 15.2272 78.481 15.6882 77.9329 15.9937C77.3278 16.3156 76.6501 16.4765 75.9649 16.4609C75.3023 16.4777 74.6473 16.3175 74.0673 15.9969ZM77.3057 15.1105C77.6585 14.8767 77.9327 14.5422 78.0929 14.1505C78.2724 13.7021 78.3605 13.2223 78.3521 12.7393C78.3601 12.2652 78.282 11.7936 78.1217 11.3473C77.9781 10.9608 77.7217 10.6263 77.3857 10.3873C76.996 10.1489 76.5481 10.0227 76.0913 10.0227C75.6344 10.0227 75.1865 10.1489 74.7969 10.3873C74.4431 10.6327 74.1676 10.9749 74.0033 11.3729C73.8212 11.8029 73.7307 12.266 73.7377 12.7329C73.73 13.2139 73.8147 13.6919 73.9873 14.1409C74.1405 14.5517 74.4209 14.9029 74.7874 15.1435C75.154 15.384 75.5878 15.5014 76.0257 15.4785C76.4799 15.4897 76.9267 15.3612 77.3057 15.1105Z" fill="white"/>
    <path d="M81.0559 9.11371H83.3215C83.9853 9.06673 84.6459 9.24116 85.1999 9.60971C85.4125 9.77661 85.5817 9.99232 85.6931 10.2386C85.8045 10.4848 85.8549 10.7543 85.8399 11.0241C85.8474 11.375 85.7683 11.7223 85.6095 12.0353C85.4706 12.3098 85.2767 12.5527 85.0399 12.7489C84.8282 12.9199 84.5905 13.056 84.3359 13.1521L86.5759 16.3521H85.1199L83.2351 13.4721H82.3167V16.3521H81.0559V9.11371ZM83.0175 12.5377C83.2954 12.5438 83.5708 12.4834 83.8207 12.3617C84.0458 12.2536 84.2356 12.0838 84.3679 11.8721C84.5 11.6461 84.5675 11.3882 84.5631 11.1265C84.576 10.9755 84.5512 10.8236 84.4908 10.6845C84.4305 10.5454 84.3366 10.4235 84.2175 10.3297C83.9175 10.1419 83.5659 10.0534 83.2127 10.0769H82.3071V12.5505L83.0175 12.5377Z" fill="white"/>
    <path d="M87.552 9.11377H91.8176L91.696 10.1442H88.816V12.1378H91.52V13.0978H88.7904V15.3058H91.84L91.7344 16.3458H87.552V9.11377Z" fill="white"/>
    <path d="M96.4575 9.11377H97.7055V16.3522H96.4575V9.11377Z" fill="white"/>
    <path d="M101.011 10.157H98.7712L98.88 9.11377H104.512L104.397 10.157H102.262V16.3522H101.011V10.157Z" fill="white"/>
    <path d="M109.936 15.9969C109.412 15.7016 108.99 15.2556 108.723 14.7169C108.429 14.1204 108.285 13.4616 108.301 12.7969C108.285 12.1027 108.439 11.4152 108.749 10.7937C109.033 10.234 109.479 9.77256 110.029 9.4689C110.64 9.14474 111.324 8.98382 112.016 9.0017C112.673 8.98331 113.323 9.13897 113.901 9.45291C114.423 9.74812 114.843 10.1943 115.107 10.7329C115.394 11.3237 115.536 11.974 115.523 12.6305C115.541 13.3328 115.385 14.0287 115.069 14.6561C114.783 15.2151 114.338 15.6763 113.789 15.9809C113.184 16.3036 112.506 16.4646 111.821 16.4481C111.164 16.4665 110.513 16.3108 109.936 15.9969ZM113.178 15.1105C113.529 14.8757 113.802 14.5414 113.962 14.1505C114.141 13.7021 114.229 13.2223 114.221 12.7393C114.229 12.2652 114.151 11.7935 113.99 11.3473C113.848 10.961 113.593 10.6265 113.258 10.3873C112.867 10.1486 112.419 10.0223 111.962 10.0223C111.504 10.0223 111.056 10.1486 110.666 10.3873C110.312 10.6327 110.036 10.9749 109.872 11.3729C109.691 11.8033 109.601 12.2662 109.606 12.7329C109.599 13.2139 109.683 13.6919 109.856 14.1409C110.009 14.5356 110.275 14.8763 110.621 15.1201C111 15.3702 111.447 15.4955 111.901 15.4785C112.354 15.4878 112.799 15.3595 113.178 15.1105Z" fill="white"/>
    <path d="M116.928 9.11377H118.362L121.942 14.7234C121.91 14.189 121.898 13.6994 121.898 13.2482V9.11377H123.056V16.3522H121.667L118.032 10.653C118.067 11.293 118.086 11.8722 118.086 12.3746V16.3522H116.928V9.11377Z" fill="white"/>
    <path fill-rule="evenodd" clip-rule="evenodd" d="M32.32 9.00024H19.0367C12.7743 9.00024 10.4832 11.2914 10.4832 17.5538V30.8466C10.4832 37.109 12.7743 39.4002 19.0367 39.4002H32.32C38.5823 39.4002 40.8767 37.109 40.8767 30.8466V17.5538C40.8831 11.2914 38.592 9.00024 32.32 9.00024Z" fill="#C8102E"/>
    <path d="M16.5025 24.2002H17.3089V28.1746H16.5025V26.5586H14.6817V28.1746H13.8752V24.2002H14.6817V25.8002H16.5025V24.2002ZM21.0465 26.4754C21.0465 27.1154 20.7265 27.4674 20.1441 27.4674C19.5617 27.4674 19.2352 27.1122 19.2352 26.4466V24.2066H18.4289V26.4786C18.4289 27.5954 19.0496 28.2354 20.1312 28.2354C21.2128 28.2354 21.8528 27.5954 21.8528 26.4434V24.2034H21.0465V26.4754ZM30.3649 26.933L29.4625 24.2002H28.8L27.8976 26.933L27.0241 24.2002H26.1665L27.552 28.1746H28.2209L29.1233 25.5634L30.0257 28.1746H30.7009L32.0833 24.2002H31.2449L30.3649 26.933ZM33.5265 26.4626H34.9952V25.7394H33.5265V24.9266H35.6576V24.2002H32.7328V28.1682H35.7344V27.445H33.5265V26.4626ZM36.6944 28.1682H37.4912V24.2002H36.6944V28.1682ZM23.4465 27.3458L23.0849 28.1714H22.2625L24 24.2002H24.7104L26.4544 28.1714H25.6097L25.28 27.349L23.4465 27.3458ZM23.7473 26.629H24.96L24.3457 25.205L23.7473 26.629Z" fill="white"/>
    <path d="M25.6832 19.141C24.3417 19.1401 23.0554 18.6069 22.1068 17.6583C21.1582 16.7096 20.6249 15.4233 20.624 14.0818H21.3376C21.3376 15.2343 21.7955 16.3396 22.6104 17.1546C23.4254 17.9696 24.5307 18.4274 25.6832 18.4274C26.8357 18.4274 27.9411 17.9696 28.756 17.1546C29.571 16.3396 30.0288 15.2343 30.0288 14.0818H30.7424C30.7416 15.4233 30.2083 16.7096 29.2597 17.6583C28.3111 18.6069 27.0247 19.1401 25.6832 19.141Z" fill="white"/>
</svg>
