<svg width="120" height="120" viewBox="0 0 120 120" fill="none" xmlns="http://www.w3.org/2000/svg">
<path fill-rule="evenodd" clip-rule="evenodd" d="M85.5516 78.2252C88.6253 76.4505 90.519 73.1708 90.519 69.6214C90.519 57.6437 90.519 31.0764 90.519 31.0764L98.2833 39.3696C98.2833 39.3696 98.2833 58.3392 98.2833 70.3073C98.2833 76.2102 95.1242 81.6617 90.0026 84.5969C86.1201 86.8222 82.3339 88.992 82.3339 88.992L74.6183 84.5374C74.6183 84.5374 80.8863 80.9186 85.5516 78.2252Z" fill="#5E7EB2"/>
<path fill-rule="evenodd" clip-rule="evenodd" d="M61.3357 64.2183C64.4094 62.4436 66.3027 59.1639 66.3027 55.6146C66.3027 43.6368 66.3027 17.0695 66.3027 17.0695L74.0671 25.3626C74.0671 25.3626 74.0671 44.3322 74.0671 56.3002C74.0671 62.2033 70.9083 67.6547 65.7867 70.5899C61.9038 72.8152 58.1179 74.985 58.1179 74.985L50.4023 70.5304C50.4023 70.5304 56.6703 66.9116 61.3357 64.2183Z" fill="#5E7EB2"/>
<path fill-rule="evenodd" clip-rule="evenodd" d="M87.1057 45.0516L64.4171 58.151L60.9659 102.592C60.9659 102.592 61.8605 103.127 62.6824 103.62C63.5131 104.117 64.547 104.127 65.3875 103.647C66.3161 103.117 67.3779 102.51 67.3779 102.51C67.3779 102.51 78.6712 95.9901 84.1686 92.8162C85.986 91.7669 87.1057 89.8277 87.1057 87.7291C87.1057 77.0863 87.1057 45.0516 87.1057 45.0516Z" fill="#5E7EB2"/>
<path fill-rule="evenodd" clip-rule="evenodd" d="M76.4962 79.2231C79.1643 77.6826 81.3307 78.8272 81.3307 81.7775C81.3307 84.7278 79.1643 88.3737 76.4962 89.9142C73.8282 91.4547 71.6617 90.3101 71.6617 87.3598C71.6617 84.4095 73.8282 80.7635 76.4962 79.2231Z" fill="#DFEAF7"/>
<path fill-rule="evenodd" clip-rule="evenodd" d="M79.0916 59.2057C79.0916 57.2848 77.9221 56.4009 76.4814 57.2327C75.0406 58.0641 73.8711 60.2989 73.8711 62.2198V81.2605C73.8711 83.1814 75.0406 84.0655 76.4814 83.2338C77.9221 82.4021 79.0916 80.1673 79.0916 78.2465V59.2057Z" fill="#DFEAF7"/>
<path fill-rule="evenodd" clip-rule="evenodd" d="M76.4872 81.6748C77.9294 80.8422 79.1001 81.4608 79.1001 83.0553C79.1001 84.6498 77.9294 86.6203 76.4872 87.4528C75.0453 88.2854 73.8746 87.6668 73.8746 86.0723C73.8746 84.4778 75.0453 82.5073 76.4872 81.6748Z" fill="#F35C5C"/>
<path fill-rule="evenodd" clip-rule="evenodd" d="M77.5703 60.7586C77.5703 59.957 77.0823 59.5883 76.4813 59.9351C75.8803 60.2822 75.3922 61.2145 75.3922 62.0157V81.6367C75.3922 82.4381 75.8803 82.8069 76.4813 82.4599C77.0823 82.1129 77.5703 81.1806 77.5703 80.3793V60.7586Z" fill="#C6C4E4"/>
<path fill-rule="evenodd" clip-rule="evenodd" d="M77.5798 71.5635C77.5798 70.8989 75.4021 72.1563 75.4021 72.8208V84.5699C75.4021 85.2345 75.8902 85.4923 76.4912 85.1453C77.0922 84.7983 77.5798 83.9771 77.5798 83.3125V71.5635Z" fill="#F35C5C"/>
<path fill-rule="evenodd" clip-rule="evenodd" d="M84.3536 67.542L80.8538 69.5628V70.0985L84.3536 68.0776V67.542Z" fill="#C6C4E4"/>
<path fill-rule="evenodd" clip-rule="evenodd" d="M82.3277 70.7926L80.8538 71.6438V72.1796L82.3277 71.3284V70.7926Z" fill="#C6C4E4"/>
<path fill-rule="evenodd" clip-rule="evenodd" d="M82.3277 72.6785L80.8538 73.5297V74.0654L82.3277 73.2142V72.6785Z" fill="#C6C4E4"/>
<path fill-rule="evenodd" clip-rule="evenodd" d="M84.3536 73.6829L80.8538 75.7037V76.2395L84.3536 74.2186V73.6829Z" fill="#C6C4E4"/>
<path fill-rule="evenodd" clip-rule="evenodd" d="M64.5285 58.2058C64.5285 58.2058 34.0133 40.5879 24.6798 35.1988C24.127 34.88 23.446 34.88 22.8933 35.1988C22.3405 35.518 22 36.1077 22 36.7461C22 45.1787 22 68.499 22 76.9983C22 78.9485 23.0404 80.7504 24.7292 81.7254C32.7729 86.3695 56.2349 99.9153 62.8022 103.707C63.1584 103.913 63.597 103.913 63.9532 103.707C64.3094 103.501 64.5285 103.121 64.5285 102.71C64.5285 93.818 64.5285 58.2058 64.5285 58.2058Z" fill="#99B2E1"/>
<path fill-rule="evenodd" clip-rule="evenodd" d="M22.0306 35.6718C22.0306 34.0384 22.9142 32.533 24.3402 31.7367C28.3482 29.4985 36.5907 24.896 41.065 22.3975C42.9596 21.3395 45.2691 21.3478 47.1561 22.4191C56.9777 27.9962 87.2288 45.1741 87.2288 45.1741L64.6993 58.1186L64.5591 58.0362V67.0131C64.5591 71.6206 61.7581 73.7384 58.3022 71.7433C50.2496 67.094 36.3403 59.0637 28.2877 54.4143C24.832 52.4194 22.0306 47.0667 22.0306 42.4592C22.0306 42.4592 22.0306 38.4618 22.0306 35.6718Z" fill="#7899CF"/>
<path fill-rule="evenodd" clip-rule="evenodd" d="M90.7668 38.0101C97.612 35.8883 98.2954 44.1992 98.2772 42.3135C98.2319 37.6135 98.5345 33.8779 94.3297 31.5728C90.5964 29.5265 86.1 29.4442 82.4131 31.5728C77.95 34.1499 72.6108 37.2323 72.6108 37.2323L82.4252 42.8986C82.4252 42.8986 89.3694 38.443 90.7668 38.0101Z" fill="#7899CF"/>
<path fill-rule="evenodd" clip-rule="evenodd" d="M66.5508 24.003C73.3961 21.8812 74.0794 30.1921 74.0613 28.3064C74.016 23.6064 74.3186 19.8708 70.1134 17.5657C66.3805 15.5195 61.8841 15.4371 58.1971 17.5657C53.7339 20.1428 48.3947 23.2252 48.3947 23.2252L58.209 28.8915C58.209 28.8915 65.1535 24.4359 66.5508 24.003Z" fill="#7899CF"/>
</svg>
