<svg width="52" height="52" viewBox="0 0 52 52" fill="none" xmlns="http://www.w3.org/2000/svg">
<rect width="52" height="52" fill="white" fill-opacity="0.0133039"/>
<rect x="1" y="5" width="50" height="42" rx="3" fill="#EDF3FC" stroke="#ABCBF5" stroke-width="2"/>
<path fill-rule="evenodd" clip-rule="evenodd" d="M32.1771 10.4378C31.4331 10.7155 30.7346 11.1013 30.1034 11.583L30.4225 12.8889C29.8527 13.3994 29.3719 14.0016 29.001 14.6706L27.6566 14.6489C27.327 15.3712 27.1058 16.1381 27 16.9249L28.1493 17.6225C28.1072 18.3865 28.1932 19.1522 28.4036 19.8879L27.4378 20.823C27.7155 21.5668 28.1014 22.2655 28.5828 22.8967L29.8891 22.5773C30.3996 23.1473 31.0015 23.6279 31.6708 23.9992L31.649 25.3434C32.3713 25.673 33.1383 25.8943 33.9249 26L34.6225 24.8507C35.3866 24.8929 36.1523 24.8068 36.888 24.5963L37.8229 25.5622C38.5669 25.2845 39.2654 24.8987 39.8966 24.417L39.5774 23.1111C40.1472 22.6006 40.628 21.9984 40.9994 21.3294L42.3433 21.3511C42.6729 20.6288 42.8943 19.8619 43 19.0751L41.8508 18.3775C41.893 17.6134 41.8069 16.8478 41.5964 16.1121L42.5622 15.1769C42.2844 14.4332 41.8988 13.7345 41.4172 13.1033L40.1113 13.4227C39.6008 12.8527 38.9984 12.3721 38.3292 12.0008L38.3509 10.6566C37.6286 10.327 36.8621 10.1057 36.075 10L35.3774 11.1493C34.6134 11.1071 33.8476 11.1932 33.112 11.4037L32.1771 10.4378ZM33.4065 15.1143C34.999 14.2347 37.0062 14.8137 37.886 16.4065C38.7653 17.9992 38.1864 20.0063 36.5935 20.8859C35.001 21.7654 32.9938 21.1864 32.1144 19.5937C31.2347 18.001 31.8137 15.9938 33.4065 15.1143Z" fill="#ABCBF5"/>
<path fill-rule="evenodd" clip-rule="evenodd" d="M15.9994 19.5317C14.8717 19.9252 13.8075 20.4829 12.8426 21.1869L13.2807 23.1619C12.4064 23.9113 11.664 24.8016 11.0832 25.796L9.06168 25.7196C8.54247 26.7954 8.1848 27.9419 8 29.1221L9.70598 30.209C9.61798 31.357 9.72232 32.5117 10.0152 33.6252L8.53178 35.0007C8.92528 36.1286 9.48283 37.1923 10.1868 38.1574L12.1619 37.7195C12.9111 38.5936 13.8018 39.3363 14.7956 39.9166L14.7196 41.9382C15.7951 42.4575 16.9416 42.8153 18.1221 43L19.2089 41.2938C20.3567 41.3821 21.5114 41.2776 22.6253 40.9849L24.0006 42.4683C25.1283 42.0748 26.1919 41.5171 27.1574 40.8132L26.7193 38.8381C27.5936 38.0888 28.336 37.1985 28.9162 36.204L30.9377 36.2805C31.4575 35.2047 31.8152 34.0581 32 32.8779L30.2934 31.7911C30.382 30.6431 30.277 29.4883 29.9848 28.3748L31.4682 26.9994C31.0747 25.8715 30.5165 24.8078 29.8132 23.8426L27.8381 24.2806C27.0882 23.4064 26.1982 22.6638 25.2037 22.0834L25.2804 20.0619C24.2043 19.5425 23.0578 19.1847 21.8779 19L20.7911 20.7062C19.6426 20.618 18.4879 20.7225 17.3747 21.0152L15.9994 19.5317ZM17.6966 26.6068C20.121 25.3356 23.1219 26.272 24.3929 28.6967C25.6645 31.1213 24.7279 34.122 22.3035 35.3933C19.8784 36.6646 16.8781 35.7282 15.6065 33.3035C14.3355 30.8788 15.2721 27.8781 17.6966 26.6068Z" fill="#93BDF5"/>
</svg>
