<?xml version="1.0" encoding="utf-8"?>
<!-- Generator: Adobe Illustrator 24.0.2, SVG Export Plug-In . SVG Version: 6.00 Build 0)  -->
<svg version="1.1" id="Layer_1" xmlns="http://www.w3.org/2000/svg" xmlns:xlink="http://www.w3.org/1999/xlink" x="0px" y="0px"
	 viewBox="0 0 120 120" style="enable-background:new 0 0 120 120;" xml:space="preserve">
<style type="text/css">
	.st0{fill-rule:evenodd;clip-rule:evenodd;fill:#5E7EB2;}
	.st1{fill-rule:evenodd;clip-rule:evenodd;fill:#FFD194;}
	.st2{fill-rule:evenodd;clip-rule:evenodd;fill:#7899CF;}
	.st3{fill-rule:evenodd;clip-rule:evenodd;fill:#99B2E1;}
	.st4{fill-rule:evenodd;clip-rule:evenodd;fill:#008AB6;}
	.st5{fill-rule:evenodd;clip-rule:evenodd;fill:#FFE9D4;}
	.st6{fill-rule:evenodd;clip-rule:evenodd;fill:#F5DDC7;}
	.st7{fill-rule:evenodd;clip-rule:evenodd;fill:#F8C787;}
	.st8{fill-rule:evenodd;clip-rule:evenodd;fill:#046F87;}
	.st9{fill-rule:evenodd;clip-rule:evenodd;fill:#D3E7FD;}
</style>
<path class="st0" d="M49.9,98.5c0,0,3,4,2.6,5.9c-0.4,1.9-0.8,1.9-1.6,2c-0.8,0.1-2.5,0-4.5-2.2c-2-2.2-3.8-4.7-3.8-4.7
	s-0.4-0.8,0.7-2c1.2-1.2,1.7-1.7,1.7-1.7L49.9,98.5z"/>
<path class="st0" d="M68.2,103.1v3.5l5.9,2.7c0,0,2.2,1,3.6,0.7c1.4-0.4,2.1-1.4,1.9-2.4c-0.2-1.1-3.9-3.9-5.1-4.8
	C73.3,101.7,70,100.5,68.2,103.1z"/>
<path class="st1" d="M63.1,26.7c0,0,3.8-1.7,5.6,2.3c1.7,4,1.8,32.9,1.8,32.9l-1.8,1.8L63.1,26.7z"/>
<path class="st2" d="M63,20.5c0,0-0.4-1-2.4-0.7C40.6,23.4,40,33,40,33l7.3-3.5L63,20.5z"/>
<path class="st3" d="M44.9,59.1c4.7,1.1,6.3,0,6.3,0l-3.9-30c-3.3-1.9-7.3,0.5-7.3,4.2v18.5C40,55.1,41.8,58.4,44.9,59.1z"/>
<path class="st0" d="M59.1,23l-12,6.3v27.1c0,2.3,2.5,3.7,4.4,2.6L62.7,53L59.1,23z"/>
<path class="st4" d="M71.4,67.3l3.2,12.2c0,0,1.6,20.5,1.5,22c-0.8,1.5-2.3,2.8-3.9,2.9c-1.6,0-5.2-0.4-5.6-2.7
	c-0.2-2.3-1.2-19-1.2-21.1c-0.4-2-3.3-13.2-3.3-13.2l-1.8,14.4c0,0-7.2,15.5-8.2,16.5c-1,1-4.4,0.8-5.9,0c-1.5-0.9-2.9-2.3-2.7-3.3
	c0.6-1.2,5.3-12.6,7.7-16.2c0.4-4,1.9-14.9,1.8-16.3c-0.1-1.4-2.6-18.7-2.6-18.7s7,5.3,7.4-4.8c2.7,2.8,10.8,12,10.8,12L71.4,67.3z"
	/>
<path class="st0" d="M49.2,54.3l1.3,1.1c0,0,5.2-3,8.8-8.2c0.2-0.3-0.6-1.4-0.9-1.1c-6.1,5.9-8.3,4.7-8.3,4.7"/>
<path class="st0" d="M59.4,25.9c0,0,8.7,0.1,8.9,8.1c0.1,8,0.3,16.7,0.3,16.7l-11.7,1.3c0,0,3.4-13.5-1.2-17.8
	c-4.6-4.3-5.9-0.9-5.9-0.9S50,30.2,59.4,25.9z"/>
<path class="st4" d="M68.4,38.4c-0.1-1.1-0.3-2-0.5-3.5c-0.1-0.6-0.7-1.9-0.9-2.6c-0.7-2.4-3.8-4.1-3.8-4.1c-2-1-4.2-1-6-0.8
	c-1.8,0.2-4.9,3.2-4.9,3.2s1.6-0.6,3.8,0.6c3.2,1.7,3.4,5.2,3.6,7.9c0.4,4.1-0.4,9.7-0.4,9.7l1,3.6l8.2-1.3
	C68.5,50.9,68.5,40.2,68.4,38.4z"/>
<path class="st5" d="M63.4,27.2v2.1c0,0-0.7,1.3-3.6,1.1c-2.9-0.2-3.5-1.2-3.5-1.2v-4.3C56.3,24.9,62,21.7,63.4,27.2z"/>
<path class="st6" d="M63.4,27.2l-0.1,0.4c0,0-3,1.9-5.8-2.1c-2.4-3.4,0.7-0.7,0.7-0.7L63.4,27.2z"/>
<path class="st5" d="M65.8,19.2c-0.2,0.1,0.8,7.1-2.5,8.4c-3.3,1.3-6.5-2.2-7.6-9.7C54.6,10.3,65.8,19.2,65.8,19.2z"/>
<path class="st7" d="M56.5,18c0,0-0.6,3.6,0.6,4.9c1.2,1.3,1,2.5,0,2.8c-1,0.3-3.4-0.9-3-9C54.6,8.6,56.5,18,56.5,18z"/>
<path class="st4" d="M66.7,17.1c0,0-0.1-2.8-0.5-3.7c-0.6-1.5-2.4-3.4-5.2-3.4c-2.8,0-4.7,1-6.1,2.4c-1.4,1.4-1,4.7-1,4.7l4.3,2.8
	C58.2,19.9,61.1,15.7,66.7,17.1z"/>
<path class="st8" d="M66.7,16.8l3,3.4c0,0-2.1-0.2-3.2,0c-1,0.2-2.8,1.1-3.6,1.7c-0.8,0.7-5.1-2.2-5.1-2.2S60.7,15,66.7,16.8z"/>
<path class="st0" d="M79.8,59.4L76.9,65l-11,1.2l0.6,0.9L77,66.3c0.5,0,1-0.4,1.2-0.9l2-4.3c0.1-0.3,0.1-0.6,0-0.8L79.8,59.4z"/>
<path class="st2" d="M79.4,59.2l-11.5,0.9c-0.1,0-0.3,0.1-0.3,0.2l-2.5,5.2c-0.1,0.3,0.1,0.6,0.4,0.6l11.1-0.8
	c0.4,0,0.8-0.3,0.9-0.6l2.3-4.8C80,59.5,79.7,59.2,79.4,59.2z"/>
<path class="st9" d="M78.5,60.3l-9.1,0.7l-2,4.1l9.1-0.7L78.5,60.3z"/>
<path class="st5" d="M66.6,58.7c0,0,0.7,1,1.4,1.3c0.9,0.3,1.8,2.6,2.4,2.8c0.6,0.3,0.9,1,0.5,1.2c-0.4,0.2-1.8-0.2-2.2-0.4
	c0.2,0.5,3,3.4,3.6,3.5c-0.8,0.5-4.2,1.4-6.7-0.5c-2.5-1.9-2.8-4.8-2.8-4.8S64.3,58.5,66.6,58.7z"/>
<path class="st1" d="M51.7,32.1c0.8,0.1,4.8,0,6,6.7c1.2,6.7,1,6.9,1,6.9l8.1,11.7c0,0,0.3,2.4-1.6,3.7c-1.9,1.3-2.8,1.4-3.3,1.1
	c-0.5-0.4-10-14.1-10-14.1s-4.4-10.5-2.7-14C50.2,31.8,50.9,32,51.7,32.1z"/>
</svg>
