<svg xmlns="http://www.w3.org/2000/svg" width="18" height="18" viewBox="0 0 18 18">
    <g fill="none" fill-rule="evenodd">
        <path stroke="#333C4E" d="M2.5.5v17h15V3.203L14.793.5H2.5z"/>
        <path fill="#333C4E" d="M0 3h14v6H0z"/>
        <path fill="#FFF" d="M4.711 6.65c-.02.444-.144.78-.374 1.008-.23.228-.554.342-.973.342-.44 0-.778-.145-1.012-.434C2.117 7.276 2 6.863 2 6.326v-.655c0-.535.121-.947.364-1.237.242-.29.579-.434 1.01-.434.425 0 .747.119.967.356.22.237.345.577.376 1.021h-.79c-.006-.275-.049-.464-.126-.568-.078-.104-.22-.157-.427-.157-.21 0-.359.074-.446.221-.088.147-.134.389-.14.726v.735c0 .387.044.653.13.797.087.144.235.217.446.217.206 0 .349-.05.427-.151.079-.101.123-.283.134-.547h.786zm2.129.275c0-.159-.041-.278-.122-.36-.081-.08-.229-.165-.443-.252-.39-.148-.67-.321-.842-.52a1.045 1.045 0 0 1-.257-.705c0-.328.117-.591.35-.79C5.757 4.1 6.052 4 6.411 4c.239 0 .452.05.639.151.187.1.33.243.432.427.1.183.15.392.15.625H6.85c0-.182-.039-.32-.116-.416-.078-.095-.19-.143-.336-.143a.42.42 0 0 0-.32.122.457.457 0 0 0-.115.328c0 .107.042.203.128.29.085.086.237.176.454.268.38.138.656.306.828.506.172.2.258.453.258.762 0 .338-.108.603-.324.794-.215.19-.508.286-.88.286-.25 0-.48-.052-.686-.155a1.163 1.163 0 0 1-.486-.444 1.29 1.29 0 0 1-.175-.682h.789c0 .225.044.388.131.49.087.101.23.152.428.152.274 0 .412-.145.412-.436zm2.58-.048l.655-2.824h.877L9.829 7.947H9.01L7.896 4.053h.871l.653 2.824z"/>
    </g>
</svg>
