<?xml version="1.0" encoding="utf-8"?>
<!-- Generator: Adobe Illustrator 24.0.2, SVG Export Plug-In . SVG Version: 6.00 Build 0)  -->
<svg version="1.1" id="Layer_1" xmlns="http://www.w3.org/2000/svg" xmlns:xlink="http://www.w3.org/1999/xlink" x="0px" y="0px"
	 viewBox="0 0 1386 441" style="enable-background:new 0 0 1386 441;" xml:space="preserve">
<style type="text/css">
	.st0{fill-rule:evenodd;clip-rule:evenodd;fill:#DAED8E;}
	.st1{fill-rule:evenodd;clip-rule:evenodd;fill:#F8FDFF;}
	.st2{fill-rule:evenodd;clip-rule:evenodd;fill:#99B2E1;}
	.st3{fill-rule:evenodd;clip-rule:evenodd;fill:#7899CF;}
	.st4{fill-rule:evenodd;clip-rule:evenodd;fill:#D3E7FD;}
	.st5{fill-rule:evenodd;clip-rule:evenodd;fill:#4B658F;}
	.st6{fill-rule:evenodd;clip-rule:evenodd;fill:url(#SVGID_1_);}
	.st7{fill-rule:evenodd;clip-rule:evenodd;fill:#03687F;}
	.st8{fill-rule:evenodd;clip-rule:evenodd;fill:#008AB6;}
	.st9{fill-rule:evenodd;clip-rule:evenodd;fill:#5E7EB2;}
	.st10{fill-rule:evenodd;clip-rule:evenodd;fill:#BBCEF3;}
	.st11{fill-rule:evenodd;clip-rule:evenodd;fill:#CF9878;}
	.st12{fill-rule:evenodd;clip-rule:evenodd;fill:#679453;}
	.st13{fill-rule:evenodd;clip-rule:evenodd;fill:#96D778;}
	.st14{fill-rule:evenodd;clip-rule:evenodd;fill:#333333;}
	.st15{fill-rule:evenodd;clip-rule:evenodd;fill:#A1B0C2;}
	.st16{fill-rule:evenodd;clip-rule:evenodd;fill:#FFFC4D;}
	.st17{fill-rule:evenodd;clip-rule:evenodd;fill:#F8FDFF;fill-opacity:0.4;}
	.st18{fill:none;stroke:#00ADEE;stroke-width:0.125;}
	.st19{fill-rule:evenodd;clip-rule:evenodd;fill:#8BB2F0;}
	.st20{fill-rule:evenodd;clip-rule:evenodd;fill:#006177;}
	.st21{fill-rule:evenodd;clip-rule:evenodd;fill:#FFFFFF;}
	.st22{fill-rule:evenodd;clip-rule:evenodd;fill:#C8D7E8;}
	.st23{fill-rule:evenodd;clip-rule:evenodd;fill:#EAF7F8;}
	.st24{fill-rule:evenodd;clip-rule:evenodd;fill:#85939A;}
	.st25{fill-rule:evenodd;clip-rule:evenodd;fill:#9BB6BD;}
	.st26{fill-rule:evenodd;clip-rule:evenodd;fill:#BECED5;}
	.st27{fill-rule:evenodd;clip-rule:evenodd;fill:#98ABB7;}
	.st28{fill-rule:evenodd;clip-rule:evenodd;fill:#CFDFEC;}
	.st29{fill-rule:evenodd;clip-rule:evenodd;fill:#748EA1;}
	.st30{fill-rule:evenodd;clip-rule:evenodd;fill:#BED6EA;}
	.st31{fill-rule:evenodd;clip-rule:evenodd;fill:#ECC7A8;}
	.st32{fill-rule:evenodd;clip-rule:evenodd;fill:#A1BEC5;}
	.st33{fill-rule:evenodd;clip-rule:evenodd;fill:#ACC2CF;}
	.st34{fill-rule:evenodd;clip-rule:evenodd;fill:#6B7279;}
	.st35{fill-rule:evenodd;clip-rule:evenodd;fill:#F54070;}
	.st36{fill-rule:evenodd;clip-rule:evenodd;fill:#BDD9EB;}
	.st37{fill-rule:evenodd;clip-rule:evenodd;fill:#A0BAC0;}
	.st38{fill-rule:evenodd;clip-rule:evenodd;fill:#BFCFD5;}
	.st39{fill-rule:evenodd;clip-rule:evenodd;fill:#A3B4C1;}
	.st40{fill-rule:evenodd;clip-rule:evenodd;fill:#626B6E;}
	.st41{fill-rule:evenodd;clip-rule:evenodd;fill:#A8BAC8;}
	.st42{fill-rule:evenodd;clip-rule:evenodd;fill:#7198AA;}
	.st43{fill-rule:evenodd;clip-rule:evenodd;fill:#AEC7CC;}
	.st44{fill-rule:evenodd;clip-rule:evenodd;fill:#E7EDE0;}
	.st45{fill-rule:evenodd;clip-rule:evenodd;fill:#F5DC5F;}
	.st46{fill-rule:evenodd;clip-rule:evenodd;fill:#D3E2E6;}
	.st47{fill-rule:evenodd;clip-rule:evenodd;fill:#CADCDE;}
	.st48{fill-rule:evenodd;clip-rule:evenodd;fill:#E9C5AD;}
	.st49{fill-rule:evenodd;clip-rule:evenodd;fill:#A7C9E4;}
	.st50{fill-rule:evenodd;clip-rule:evenodd;fill:#7EACBF;}
	.st51{fill-rule:evenodd;clip-rule:evenodd;fill:#A6BAC8;}
	.st52{fill-rule:evenodd;clip-rule:evenodd;fill:#CCAE2B;}
	.st53{fill-rule:evenodd;clip-rule:evenodd;fill:#FFD833;}
	.st54{fill-rule:evenodd;clip-rule:evenodd;fill:#E6C430;}
	.st55{fill-rule:evenodd;clip-rule:evenodd;fill:#849299;}
	.st56{fill-rule:evenodd;clip-rule:evenodd;fill:#94A2AA;}
	.st57{fill-rule:evenodd;clip-rule:evenodd;fill:#6A7780;}
	.st58{fill-rule:evenodd;clip-rule:evenodd;fill:#00586D;}
	.st59{fill-rule:evenodd;clip-rule:evenodd;fill:#FECFB7;}
	.st60{fill-rule:evenodd;clip-rule:evenodd;fill:#510000;}
	.st61{fill-rule:evenodd;clip-rule:evenodd;fill:#8DBDE2;}
</style>
<path class="st0" d="M1176.7,245l-41.8-24.1c-1.2-0.7-2.8-0.7-4,0l-33,19c-2.7,1.6-2.7,5.5,0.1,7l41.2,22.3c2.4,1.3,5.4,1.3,7.8-0.1
	l29.7-17.2C1179.4,250.4,1179.4,246.6,1176.7,245z"/>
<path class="st0" d="M1257.2,196.7l-42.5-22.2c-1.3-0.7-2.8-0.6-4,0.1l-28.2,17.5c-2.6,1.6-2.5,5.4,0.1,6.9l37.4,21.6
	c2.5,1.4,5.5,1.4,8,0l29.3-16.9C1260.1,202.2,1260,198.2,1257.2,196.7z"/>
<path class="st0" d="M759.5,336.6l-89-51.1c-1.2-0.7-2.8-0.7-4,0l-61.9,35.6c-2.7,1.5-2.7,5.4,0,6.9l87,50.2c2.5,1.4,5.5,1.4,8,0
	l60-34.6C762.1,342,762.1,338.1,759.5,336.6z"/>
<path class="st0" d="M1051.8,148.4l-40.3-22.9c-1.2-0.7-2.8-0.7-4,0l-89.5,51.7c-2.7,1.5-2.7,5.4,0,6.9l38.3,22.2
	c2.5,1.4,5.6,1.4,8,0l87.5-51C1054.5,153.8,1054.5,149.9,1051.8,148.4z"/>
<path class="st1" d="M776.5,147.3L710.2,109l-37.9,21.9l66.3,38.3L776.5,147.3z"/>
<path class="st2" d="M738.6,169.3L672.3,131v43.8l66.3,38.3V169.3z"/>
<path class="st3" d="M730.6,178.5L681.3,150v29l49.3,28.5V178.5z"/>
<path class="st4" d="M776.5,147l-38.1,22v43.8l38.1-22V147z"/>
<path class="st5" d="M675.3,156l49.3,28.5l5.9-6L681.2,150L675.3,156z"/>
<linearGradient id="SVGID_1_" gradientUnits="userSpaceOnUse" x1="587.8717" y1="-155.0168" x2="819.7007" y2="612.9502" gradientTransform="matrix(1 0 0 -1 0 442)">
	<stop  offset="0" style="stop-color:#F5FBFF"/>
	<stop  offset="0.7825" style="stop-color:#C8D7E8"/>
	<stop  offset="1" style="stop-color:#C8D7E8;stop-opacity:1.000000e-02"/>
</linearGradient>
<path class="st6" d="M0,441h162c134.5-74.1,410-213.3,410-213.3c9.8-5.7,21.6-5.7,31.2-0.2L799.5,340c30,17.2,66.8,17.1,96.7-0.2
	l231.3-133.6l98.4,56.1c8.1,4.6,8.1,16.3-0.1,20.9l-35.9,20.3l-33.4-18.9c-1.2-0.7-2.8-0.7-4,0l-88.3,51c-2.7,1.5-2.7,5.4,0,6.9
	l71.6,41.8c2.5,1.4,5.6,1.5,8,0l87.4-50.4c2.7-1.5,2.7-5.4,0-6.9l-16.9-9.6l23.4-13.2c24.4-13.7,24.4-48.8,0.2-62.6l-86.2-49.2
	l234.2-135.2L1386,0h-33.2L863.2,282.7c-9.6,5.5-21.3,5.5-30.9,0.1L636,170.2c-29.9-17.1-66.5-17.1-96.4,0L0,441z"/>
<path class="st1" d="M653.6,219.2l-63.2-36.5l-69.7,40.2l63.2,36.5L653.6,219.2z"/>
<path class="st4" d="M653.6,219.2l-70.1,40.5v54.7l70.1-40.5V219.2z"/>
<path class="st2" d="M583.9,259.7l-63.2-36.5v54.7l63.2,36.5V259.7z"/>
<path class="st3" d="M548.1,276l-18.2-10.5v-14.9l18.2,10.5V276z"/>
<path class="st3" d="M573.5,290.6l-18.2-10.5v-14.9l18.2,10.5V290.6z"/>
<path class="st5" d="M548.1,261.1l-18.2-10.5l-3.5,4l18.2,10.5L548.1,261.1z"/>
<path class="st5" d="M573.5,275.7l-18.2-10.5l-3.5,4l18.2,10.5L573.5,275.7z"/>
<path class="st3" d="M614.5,261.9l-18.9,10.9v15.4l18.9-10.9V261.9z"/>
<path class="st3" d="M643.3,244l-17.7,10.2v35.3l17.7-10.2V244z"/>
<path class="st7" d="M586,224.7c-8.4-9.2-12.7-16.4-12.7-21.8c0-8,5.7-17.8,12.7-21.9c4.6-2.7,7.5-2.6,11.5,0
	c1.6,1.1,1.2,4.4,1.2,7.2c0,5.2-2.5,19.1-10.5,37.1C587,225.1,587,225.1,586,224.7z"/>
<path class="st8" d="M588.2,225.4c-8.4-9.2-12.7-16.4-12.7-21.8c0-8,5.7-17.8,12.7-21.9c7-4,12.7-0.8,12.7,7.2
	C600.9,194.4,596.6,206.5,588.2,225.4z"/>
<path class="st4" d="M840.1,190L795,216.1v28.8l45.1-26.1V190z"/>
<path class="st9" d="M840.1,184L795,210.1v6.3l45.1-26.1V184z"/>
<path class="st4" d="M840,156l-45,26.1v28.8l45.1-26.1L840,156z"/>
<path class="st3" d="M816,180l-13,7.5v11.7l13-7.5V180z"/>
<path class="st3" d="M834,169l-13,7.5v11.7l13-7.5V169z"/>
<path class="st2" d="M795.1,215.5L770,201v28.8l25.1,14.5V215.5z"/>
<path class="st2" d="M795.1,182.5L770,168v28.8l25.1,14.5V182.5z"/>
<path class="st9" d="M795.1,210.5L770,196v5.8l25.1,14.5V210.5z"/>
<path class="st3" d="M788.3,188.9L778,183v9.3l10.3,5.9V188.9z"/>
<path class="st10" d="M770,167.9l25,15.1l45-26.5L814.9,142L770,167.9z"/>
<path class="st1" d="M779,168.3l15.8,9.1l35.1-20.3l-15.8-9.1L779,168.3z"/>
<path class="st3" d="M786.1,219.2L777,214v19.7l9.1,5.2V219.2z"/>
<path class="st2" d="M845,219l-24.1-13.9v51.9l24.1,13.9V219z"/>
<path class="st4" d="M869,205.1L844.9,219v51.9l24.1-13.9V205.1z"/>
<path class="st1" d="M868.9,205.1l-24.1-13.9l-23.9,13.8L845,219L868.9,205.1z"/>
<path class="st3" d="M864.8,214.9l-15.5,8.9v3.9l15.5-8.9V214.9z"/>
<path class="st3" d="M864.8,222.9l-15.5,8.9v3.9l15.5-8.9V222.9z"/>
<path class="st3" d="M864.8,231.6l-15.5,8.9v3.9l15.5-8.9V231.6z"/>
<path class="st11" d="M686.7,288.4h-6.5v44c0,1.8,1.5,3.3,3.3,3.3c1.8,0,3.3-1.5,3.3-3.3V288.4z"/>
<path class="st12" d="M681.2,313.9c-1.2,0-2.3-0.1-3.4-0.4c1.7,1.4,3.6,2.2,5.7,2.2c4,0,7.6-3,9.5-7.3
	C690,311.7,685.8,313.9,681.2,313.9z"/>
<path class="st13" d="M694.5,269.1c0,8.4-5,15.1-11.1,15.1s-11.1-6.8-11.1-15.1c0-8.4,5-15.1,11.1-15.1S694.5,260.8,694.5,269.1z"/>
<path class="st13" d="M700.9,293.4c0,11.6-7.8,21.1-17.5,21.1c-9.7,0-17.5-9.4-17.5-21.1s7.8-21.1,17.5-21.1
	C693.1,272.3,700.9,281.8,700.9,293.4z"/>
<path class="st12" d="M682.5,280.5c-1.2,0-2.3-0.1-3.4-0.4c1.7,1.4,3.6,2.2,5.7,2.2c4,0,7.6-3,9.5-7.3
	C691.2,278.4,687,280.5,682.5,280.5z"/>
<path class="st11" d="M967.3,140h-6.5v44c0,1.8,1.5,3.3,3.3,3.3c1.8,0,3.3-1.5,3.3-3.3V140z"/>
<path class="st12" d="M961.8,165.5c-1.2,0-2.3-0.1-3.4-0.4c1.7,1.4,3.6,2.2,5.7,2.2c4,0,7.6-2.9,9.5-7.3
	C970.5,163.4,966.4,165.5,961.8,165.5z"/>
<path class="st13" d="M975.1,120.8c0,8.4-5,15.1-11.1,15.1c-6.1,0-11.1-6.8-11.1-15.1c0-8.4,5-15.1,11.1-15.1
	C970.1,105.6,975.1,112.4,975.1,120.8z"/>
<path class="st13" d="M981.5,145c0,11.6-7.8,21.1-17.5,21.1c-9.7,0-17.5-9.4-17.5-21.1c0-11.6,7.8-21.1,17.5-21.1
	C973.7,124,981.5,133.4,981.5,145z"/>
<path class="st12" d="M963,132.1c-1.2,0-2.3-0.1-3.4-0.4c1.7,1.4,3.6,2.2,5.7,2.2c4,0,7.6-2.9,9.5-7.3
	C971.8,130,967.6,132.1,963,132.1z"/>
<path class="st11" d="M1009.8,116.6h-6.5v44c0,1.8,1.5,3.3,3.3,3.3s3.3-1.5,3.3-3.3V116.6z"/>
<path class="st12" d="M1004.4,142.1c-1.2,0-2.3-0.1-3.4-0.4c1.7,1.4,3.6,2.2,5.7,2.2c4,0,7.6-3,9.5-7.3
	C1013.1,140,1009,142.1,1004.4,142.1z"/>
<path class="st13" d="M1017.7,97.4c0,8.4-5,15.1-11.1,15.1s-11.1-6.8-11.1-15.1c0-8.4,5-15.1,11.1-15.1S1017.7,89,1017.7,97.4z"/>
<path class="st13" d="M1024.1,121.6c0,11.6-7.8,21.1-17.5,21.1c-9.7,0-17.5-9.4-17.5-21.1s7.8-21.1,17.5-21.1
	C1016.2,100.6,1024.1,110,1024.1,121.6z"/>
<path class="st12" d="M1005.6,108.7c-1.2,0-2.3-0.1-3.4-0.4c1.7,1.4,3.6,2.2,5.7,2.2c4,0,7.6-3,9.5-7.3
	C1014.3,106.6,1010.2,108.7,1005.6,108.7z"/>
<path class="st14" d="M1125.8,310.7c-0.6-1.2-2-1.6-3.6-0.6c-2.2,1.2-3.9,4.2-3.9,6.7c0,1.8,2.1,3.1,2.1,3.1s2.2,1.2,3.8,0.3
	c2.2-1.2,3.9-4.2,3.9-6.7C1128.1,311.6,1127.2,310.6,1125.8,310.7z"/>
<path class="st14" d="M1146.6,318.6c-0.6-1.2-2-1.6-3.6-0.6c-2.2,1.2-3.9,4.2-3.9,6.7c0,1.8,2.1,3.1,2.1,3.1s2.2,1.2,3.8,0.3
	c2.2-1.2,3.9-4.2,3.9-6.7C1148.9,319.5,1148,318.5,1146.6,318.6z"/>
<path class="st14" d="M1174.4,302.6c-0.6-1.2-2-1.6-3.6-0.6c-2.2,1.2-3.9,4.2-3.9,6.7c0,1.8,2.1,3.1,2.1,3.1s2.2,1.2,3.8,0.3
	c2.2-1.2,3.9-4.2,3.9-6.7C1176.7,303.5,1175.8,302.5,1174.4,302.6z"/>
<path class="st5" d="M1182.7,290l-19.8-11.4l-26.5,15.3l19.8,11.4L1182.7,290z"/>
<path class="st5" d="M1142.9,302.5l-16.7-9l-10,12l20,11.6L1142.9,302.5z"/>
<path class="st9" d="M1136.2,316.8l-20-11.6V316l20,11.6V316.8z"/>
<path class="st9" d="M1156.1,295l-16.2-9.4l-13.5,7.8l16.2,9.4L1156.1,295z"/>
<path class="st15" d="M1136.4,325.8l-20.2-11.7v1.9l20.2,11.7V325.8z"/>
<path class="st9" d="M1182.9,290.1l-26.8,15.1v-10.4l-13.2,7.6l-6.7,14.6v10.7l46.7-27V290.1z"/>
<path class="st14" d="M1149.6,320.4c0-2.7-1.9-3.8-4.2-2.4c-2.3,1.4-4.2,4.6-4.2,7.3c0,2.7,1.9,3.8,4.2,2.4
	C1147.7,326.4,1149.6,323.1,1149.6,320.4z"/>
<path class="st4" d="M1148,321.3c0-1.7-1.2-2.4-2.7-1.5c-1.5,0.9-2.7,2.9-2.7,4.6c0,1.7,1.2,2.4,2.7,1.5
	C1146.8,325.1,1148,323,1148,321.3z"/>
<path class="st14" d="M1177.3,304.5c0-2.7-1.9-3.8-4.2-2.4c-2.3,1.4-4.3,4.6-4.3,7.3c0,2.7,1.9,3.8,4.3,2.4
	C1175.4,310.4,1177.3,307.1,1177.3,304.5z"/>
<path class="st4" d="M1175.7,305.4c0-1.7-1.2-2.4-2.7-1.5c-1.5,0.9-2.7,2.9-2.7,4.6c0,1.7,1.2,2.4,2.7,1.5
	C1174.5,309.1,1175.7,307.1,1175.7,305.4z"/>
<path class="st16" d="M1121.4,314.9l-5.2-3v-2.7l5.2,3V314.9z"/>
<path class="st16" d="M1136.2,323.5l-5.1-3v-2.7l5.1,3V323.5z"/>
<path class="st5" d="M1139.2,315.3l13.5-7.8v-9l-8.2,4.8L1139.2,315.3z"/>
<path class="st11" d="M1149.8,226.4h-6.9v21.5c0,1.9,1.5,3.5,3.5,3.5s3.5-1.5,3.5-3.5V226.4z"/>
<path class="st13" d="M1128.6,214c0,9.6,7.8,17.4,17.4,17.4c9.6,0,17.4-7.8,17.4-17.4c0-9.6-7.8-17.4-17.4-17.4
	C1136.4,196.6,1128.6,204.4,1128.6,214z"/>
<path class="st12" d="M1146,228.5c-8.4,0-15.5-5.8-17.4-13.6c0.3,9.4,8,16.8,17.4,16.8c9.4,0,17.1-7.5,17.4-16.8
	C1161.5,222.7,1154.4,228.5,1146,228.5z"/>
<path class="st17" d="M1146,199.8c8.4,0,15.5,5.8,17.4,13.6c-0.3-9.4-8-16.8-17.4-16.8c-9.4,0-17.1,7.5-17.4,16.8
	C1130.6,205.6,1137.6,199.8,1146,199.8z"/>
<path class="st11" d="M1227.2,180.6h-6.9V202c0,1.9,1.5,3.5,3.5,3.5s3.5-1.5,3.5-3.5V180.6z"/>
<path class="st13" d="M1206,168.2c0,9.6,7.8,17.4,17.4,17.4c9.6,0,17.4-7.8,17.4-17.4c0-9.6-7.8-17.4-17.4-17.4
	C1213.8,150.8,1206,158.6,1206,168.2z"/>
<path class="st12" d="M1223.4,182.7c-8.4,0-15.5-5.8-17.4-13.6c0.3,9.4,8,16.8,17.4,16.8s17.1-7.5,17.4-16.8
	C1238.9,176.9,1231.8,182.7,1223.4,182.7z"/>
<path class="st17" d="M1223.4,154c8.4,0,15.5,5.8,17.4,13.6c-0.3-9.4-8-16.8-17.4-16.8s-17.1,7.5-17.4,16.8
	C1207.9,159.8,1215,154,1223.4,154z"/>
<path class="st5" d="M1201.5,232.2l-7,9.9c-0.7,0.9-0.4,2.2,0.6,2.8l14,8.1c1.6,0.9,3.5-0.7,2.8-2.4l-7-17.9
	C1204.3,231.2,1202.4,230.9,1201.5,232.2z"/>
<path class="st9" d="M1202.5,240.8c-0.7,0-1.2,0.5-1.2,1.2v36.5c0,0.6,0.5,1.2,1.2,1.2c0.6,0,1.2-0.5,1.2-1.2V242
	C1203.7,241.3,1203.1,240.8,1202.5,240.8z"/>
<path class="st1" d="M1121.9,169.2l-29.1-16.8l-37.9,21.9l29.1,16.8L1121.9,169.2z"/>
<path class="st2" d="M1084.9,191.9l-29.1-16.8v114.1l29.1,16.8V191.9z"/>
<path class="st4" d="M1122.4,168.9l-38.2,22.1v114.1l38.2-22V168.9z"/>
<path class="st2" d="M1086.6,171.9l-14.1-8.1v7.8l14.1,8.1V171.9z"/>
<path class="st18" d="M1104.5,161.2l-14.1-8.1l-18.3,10.6l14.1,8.1L1104.5,161.2z"/>
<path class="st4" d="M1104.7,160.8l-18.4,10.7v7.8l18.4-10.7V160.8z"/>
<path class="st3" d="M1114.8,195.4l-23,13.3v6.3l23-13.3V195.4z"/>
<path class="st3" d="M1114.8,209.4l-23,13.3v6.3l23-13.3V209.4z"/>
<path class="st3" d="M1114.8,223.9l-23,13.3v6.3l23-13.3V223.9z"/>
<path class="st3" d="M1114.8,238l-23,13.3v6.3l23-13.3V238z"/>
<path class="st1" d="M1072.4,243.6l-17.6-10.1l-22.9,13.2l17.6,10.1L1072.4,243.6z"/>
<path class="st2" d="M1050,257.3l-17.6-10.1V316l17.6,10.1V257.3z"/>
<path class="st4" d="M1072.7,243.4l-23.1,13.3v68.8l23.1-13.3V243.4z"/>
<path class="st2" d="M1051.1,245.2l-8.5-4.9v4.7l8.5,4.9V245.2z"/>
<path class="st18" d="M1061.9,238.8l-8.5-4.9l-11.1,6.4l8.5,4.9L1061.9,238.8z"/>
<path class="st4" d="M1062,238.5l-11.1,6.4v4.7l11.1-6.4V238.5z"/>
<path class="st4" d="M1036.2,268.4l-21.6,12.5v65.3l21.6-12.4V268.4z"/>
<path class="st1" d="M1036.1,268.4l-21.6-12.4l-21.4,12.4l21.6,12.4L1036.1,268.4z"/>
<path class="st2" d="M1014.6,280.8l-21.6-12.4v65.3l21.6,12.4V280.8z"/>
<path class="st4" d="M1009.6,292.5l-4.7,2.7v51l4.7-2.7V292.5z"/>
<path class="st2" d="M1004.8,295l-16.8-9.7v51l16.8,9.7V295z"/>
<path class="st1" d="M1009.5,292.5l-16.8-9.7l-4.7,2.7l16.8,9.7L1009.5,292.5z"/>
<path class="st4" d="M1022.8,262.1l-8.3,4.8v8l8.3-4.8V262.1z"/>
<path class="st2" d="M1014.6,266.9l-8.3-4.8v8l8.3,4.8V266.9z"/>
<path class="st1" d="M1025,259.2l-10.4-6l-10.4,6l10.4,6L1025,259.2z"/>
<path class="st9" d="M1014.6,265.2l-10.4-6v1.7l10.4,6V265.2z"/>
<path class="st19" d="M1025.1,259.1l-10.4,6v1.7l10.4-6V259.1z"/>
<path class="st4" d="M854.2,198.2l-8.3,4.8v8l8.3-4.8V198.2z"/>
<path class="st2" d="M845.9,203l-8.3-4.8v8l8.3,4.8V203z"/>
<path class="st1" d="M856.3,195.3l-10.4-6l-10.4,6l10.4,6L856.3,195.3z"/>
<path class="st9" d="M845.9,201.3l-10.4-6v1.7l10.4,6V201.3z"/>
<path class="st19" d="M856.4,195.3l-10.4,6v1.7l10.4-6V195.3z"/>
<path class="st3" d="M1032.1,277.1l-13.3,7.7v3.6l13.3-7.7V277.1z"/>
<path class="st3" d="M1032.1,284.4l-13.3,7.7v3.6l13.3-7.7V284.4z"/>
<path class="st3" d="M1032.1,292.6l-13.3,7.7v3.6l13.3-7.7V292.6z"/>
<path class="st3" d="M1032.1,300.5l-13.3,7.7v3.6l13.3-7.7V300.5z"/>
<path class="st20" d="M1013.5,258.9c-8-8.7-12-15.5-12-20.6c0-7.6,5.4-16.9,12-20.7c4.4-2.5,7.1-2.5,10.8,0c1.5,1,1.2,4.2,1.2,6.8
	c0,4.9-2.4,18.1-9.9,35.2C1014.4,259.3,1014.4,259.3,1013.5,258.9z"/>
<path class="st8" d="M1015.5,259.6c-8-8.7-12-15.5-12-20.6c0-7.6,5.4-16.9,12-20.7c6.6-3.8,12-0.8,12,6.8
	C1027.5,230.2,1023.5,241.7,1015.5,259.6z"/>
<path class="st21" d="M591.8,201.2l-6.6,3.8v-1.7l2.3-4.2c0.3-0.5,0.6-1,0.8-1.5c0.2-0.4,0.4-0.9,0.6-1.2c0.2-0.4,0.3-0.8,0.4-1.1
	c0.1-0.4,0.1-0.7,0.1-1.1c0-0.4-0.1-0.6-0.3-0.7c-0.2-0.1-0.5,0-0.8,0.1c-0.4,0.2-0.7,0.5-1,0.9c-0.3,0.4-0.7,0.9-1,1.5l-1.1-0.9
	c0.2-0.3,0.4-0.7,0.6-1c0.2-0.3,0.5-0.6,0.7-0.9c0.3-0.3,0.6-0.6,0.9-0.9c0.3-0.3,0.7-0.5,1.1-0.8c0.5-0.3,0.9-0.4,1.3-0.5
	c0.4-0.1,0.7,0,1,0.1c0.3,0.1,0.5,0.3,0.6,0.7c0.1,0.3,0.2,0.7,0.2,1.2c0,0.4-0.1,0.9-0.2,1.4c-0.1,0.5-0.3,1-0.6,1.5
	c-0.2,0.5-0.5,1.1-0.8,1.6c-0.3,0.6-0.6,1.1-1,1.7l-1.2,2.1v0.1l4-2.3V201.2z"/>
<path class="st22" d="M1095.1,374.4l-15.2-10l-17.5,9.9l16.5,9.5L1095.1,374.4z"/>
<path class="st3" d="M1089.2,364.5l-10.6,6.1v10.2l10.6-6.1V364.5z"/>
<path class="st9" d="M1078.7,370.6l-10.6-6.1v10.1l10.6,6.1V370.6z"/>
<path class="st23" d="M1092,361.4l-13.3-7.7l-13.2,7.6l13.3,7.7L1092,361.4z"/>
<path class="st9" d="M1078.7,369l-13.3-7.7v2.2l13.3,7.7V369z"/>
<path class="st19" d="M1092.1,361.4l-13.3,7.7v2.2l13.3-7.7V361.4z"/>
<path class="st3" d="M1089.2,351l-10.6,6.1v10.1l10.6-6.1V351z"/>
<path class="st9" d="M1078.7,357.1l-10.6-6.1v10.2l10.6,6.1V357.1z"/>
<path class="st1" d="M1092,347.2l-13.3-7.7l-13.2,7.6l13.3,7.7L1092,347.2z"/>
<path class="st9" d="M1078.7,354.9l-13.3-7.7v2.2l13.3,7.7V354.9z"/>
<path class="st19" d="M1092.1,347.2l-13.3,7.7v2.2l13.3-7.7V347.2z"/>
<path class="st2" d="M976.6,303c-9.8-8.8-26.5-11.4-26.5-11.4l-0.4,74.5l39.6-9.2C989.4,356.9,997.1,321.4,976.6,303z"/>
<path class="st4" d="M979.9,305.5c-7.5-6.7-16.5-6.4-16.5-6.4V374l27-15.6C990.4,358.4,995.6,319.6,979.9,305.5z"/>
<path class="st2" d="M949.8,291.2l13.6,7.9V374l-13.6-7.9V291.2z"/>
<path class="st3" d="M975.3,318.9l-11.9,6.9v-5.2l11.9-6.9V318.9z"/>
<path class="st3" d="M975.3,329.6l-11.9,6.9v-5.2l11.9-6.9V329.6z"/>
<path class="st3" d="M975.3,340.4l-11.9,6.9V342l11.9-6.9V340.4z"/>
<path class="st3" d="M963.4,325.6l-6.8-3.9v-5.2l6.8,3.9V325.6z"/>
<path class="st3" d="M963.4,336.7l-6.8-3.9v-5.2l6.8,3.9V336.7z"/>
<path class="st3" d="M963.4,347.1l-6.8-3.9V338l6.8,3.9V347.1z"/>
<path class="st22" d="M1316.6,325.7c1.9,0,1.9-3,0-3C1314.6,322.7,1314.6,325.7,1316.6,325.7z"/>
<path class="st21" d="M1017.4,240.1l-2.2,1.3v-6.9c0-0.1,0-0.3,0-0.5c0-0.2,0-0.4,0-0.6c0-0.2,0-0.4,0-0.7c0-0.2,0-0.4,0-0.6
	c0,0-0.1,0.1-0.1,0.2c-0.1,0.1-0.1,0.2-0.2,0.3c-0.1,0.1-0.2,0.2-0.2,0.4c-0.1,0.1-0.1,0.2-0.2,0.3l-1.2,1.8l-1.1-0.9l3.4-5l1.8-1
	V240.1z"/>
<path class="st24" d="M937.7,266.3c4.4-2.5,8-0.4,8,4.9s-3.6,11.5-8,14.1c-4.4,2.5-8,0.4-8-4.9S933.3,268.9,937.7,266.3z"/>
<path class="st25" d="M937.5,269.7c2.8-1.6,5.1-0.3,5.1,3c0,3.3-2.3,7.3-5.1,9c-2.8,1.6-5.1,0.3-5.1-3
	C932.4,275.3,934.7,271.3,937.5,269.7z"/>
<path class="st26" d="M937.4,272c1.8-1,3.3-0.2,3.3,1.9s-1.5,4.6-3.3,5.7c-1.8,1-3.3,0.2-3.3-1.9C934.1,275.6,935.6,273,937.4,272z"
	/>
<path class="st9" d="M932.6,278.6l-2.9-1.2c0,0-5.1-0.3-6.6,6.6c-1,4.7,3.9,5.7,3.9,5.7s-2.1-4,0.4-7.4
	C929.8,279,931.8,278.7,932.6,278.6z"/>
<path class="st27" d="M930.4,276l0.3,1.8c0,0-19.1,22.7-27.4,21.8c-4,0.2-9.2-4.2-3.9-24c1.5-1.8,5.7-3.2,5.7-3.2L930.4,276z"/>
<path class="st21" d="M903.1,280.6c0,0,0.2,0.7-0.1,1c-0.3,0.3-4.4,3-5,3.2c-0.1-0.8,0.1-1.4,0.1-1.4S902.8,280.6,903.1,280.6z"/>
<path class="st28" d="M902.8,280.7c0,0-3.8,2.6-5.1,3.1c-0.7-1.2-0.2-2.8,0.2-3.4c0.4-0.7,1-0.7,2-0.7
	C900.9,279.6,902.6,280.3,902.8,280.7z"/>
<path class="st3" d="M938.1,248.8c0,0,5,1.3,8.1,8.3c-3.1,4.7-14.5,15.5-26.8,16.6c-5.5,0.4-8.4,0.5-11.1-4.7
	c-2.7-5.2,4.5-5.3,5.4-5.8C914.5,262.7,929.1,245.8,938.1,248.8z"/>
<path class="st29" d="M903,279c0,0,0.2,1.2,0,1.6c-0.4,0.5-2.4,1.6-2.4,1.6s-0.1-1.8,0.5-2.4C901.7,279.2,903,279,903,279z"/>
<path class="st2" d="M947.9,259.3c0,0-3-7.9-15.6-1.3c-12.5,6.6-13.7,22.9-13.7,22.9s1.4,0.5,2.8,0.2c0.3-2.1,2.3-15.2,12.4-20.4
	C944.1,255.5,947.9,259.3,947.9,259.3z"/>
<path class="st3" d="M918.8,281.1c0,0,0.3,2.4,0.1,2.8c-0.1,0.4,0,0.6-1.1,0.8c-1.1,0.1-3.1,0.5-5.5-0.5c-2.3-1-8.2-2.8-8.4-8.1
	c1.1-1.7,1.6-1.8,1.6-1.8s4.7,7.4,9.8,7C918,281.1,918.8,281.1,918.8,281.1z"/>
<path class="st9" d="M918.7,281c0,0-6.1,1.2-9-0.9c-2.9-2.1-1.6-7.8-0.6-8.9c1-1.1,1.2,4.8,11.4,1.9
	C919.3,276.4,919.1,277.4,918.7,281z"/>
<path class="st30" d="M939.2,248.7c0,0,0.2,2.2-3.3,3.8c-3.6,1.6-2.5,0.6-2.5,0.6l0.5-1.5c0,0,2.1,0.1,3.5-1.8
	C938.8,247.9,939.2,248.7,939.2,248.7z"/>
<path class="st31" d="M951.3,255c0,0,1.5-0.7,2.8,1.4c0.3,1.7-0.2,2-0.5,2.3c-0.3,0.2,0.3-1.4-0.6-2.3
	C952.1,255.5,951.3,255,951.3,255z"/>
<path class="st32" d="M940.1,248.6c0,0,4.3,1.5,6.9,6.7c-0.3,1.1-0.9,2.1-0.9,2.1s-1.4-3.9-6.8-7.9
	C939.5,248.9,940.1,248.6,940.1,248.6z"/>
<path class="st33" d="M949.4,256.7l-1.1,1.1l-1.9-1.3l0.6-1.1L949.4,256.7z"/>
<path class="st2" d="M951.2,255c0,0-3,1-3,3.7c0,1.2,1.5,1.4,2.6,1.2c1.1-0.2,2.6-0.8,2.9-1.2C953.7,257.8,954,256.3,951.2,255z"/>
<path class="st34" d="M874.5,318.4c0,0-4.6-0.1-7.5-4.2c-1.6-3.2-1.5-9.1,1.8-13.7c3.8-5.1,8.3-5.6,8.3-5.6l6.1,1.1
	c0,0-9,3.6-10.6,9.6C871.1,311.6,871,315.4,874.5,318.4z"/>
<path class="st35" d="M941.8,247.3c0,0,5.7,1.1,5.6,6.4c-0.1,0.8-0.5,1.8-0.5,1.8s-2.1-4.7-6.6-6.8
	C941.4,247.5,941.8,247.3,941.8,247.3z"/>
<path class="st36" d="M943.8,246.4l-1.2,5.1l-0.7-0.7l1.2-3.9L943.8,246.4z"/>
<path class="st37" d="M877.2,302.2c0,0,5.3-5.2,7.8-0.3c1.3,2.5-0.4,7.9-2.8,10.4c-2.4,2.5-6.8,4.7-8.3,0.7
	C871.8,307.8,877.2,302.2,877.2,302.2z"/>
<path class="st24" d="M879.1,297.3c4.8-2.8,8.7-0.5,8.7,4.9c0,5.5-3.9,12.2-8.7,15c-4.8,2.8-8.7,0.5-8.7-4.9
	C870.4,306.8,874.3,300.1,879.1,297.3z"/>
<path class="st38" d="M879.5,302.4c2.2-1.3,4.1-0.3,4.1,2.3s-1.8,5.7-4.1,7c-2.2,1.3-4.1,0.3-4.1-2.3
	C875.4,306.8,877.3,303.7,879.5,302.4z"/>
<path class="st39" d="M883.1,295.4c0,0-1.1,3-2.3,6c-1.2,3.1-2.4,6.2-1.5,6.4c1.1,0.9,4.3-7.9,4.3-7.9l1.9-4.1L883.1,295.4z"/>
<path class="st40" d="M908.4,251.4L898,258c0,0-1.2,0.8-2.1,2.4c-0.9,1.6,0.8,18.4,0.8,18.4s1.4,1.9,3.3,1.7c2-0.2,3.2-1.9,3.2-1.9
	l1.3-9.5l8.4-12.3L908.4,251.4z"/>
<path class="st41" d="M885.8,296l-4.9,10.6c0,0-0.7,1.5-1.4,1.2c-0.6-0.3,0.1-1.9,0.1-1.9l4.1-10.3L885.8,296z"/>
<path class="st2" d="M897.3,257.4l4,2.3l-1.4,0.8l-3-1.9L897.3,257.4z"/>
<path class="st19" d="M899.2,251.7c0,0-2.3,9-2.7,10.2c-3.4-0.8-6.6-2.8-6.6-2.8s1.9-7.9,2.4-8.6c0.5-0.7,2.3-0.4,3.6-0.2
	C897.1,250.4,899.2,251.7,899.2,251.7z"/>
<path class="st2" d="M928.1,280.6c0.8-1,5-4.4,5.9,0.2c1,5.4-3.1,9.3-5,9.4c-1.8,0.2-4.1-1.2-3-5.8
	C926.3,283.3,927.2,281.6,928.1,280.6z"/>
<path class="st42" d="M887.2,256.5c0,0,10.3,1.7,12.4,9.6c1.9,6.7,0,10-0.6,12.8c-0.6,2.7-3.5,18.2,3.2,20.5
	c-5,0.8-6.9-5.1-5.7-12.4c1.2-7.3,3.9-16.4,1.8-19.7c-2.2-3.3-7.1-9.6-10.4-9.9C887.1,257.1,886.5,257,887.2,256.5z"/>
<path class="st3" d="M892.7,259.3c0,0-5.4-4.8-9.2-0.7c-3.8,4-7.2,13-6.3,21.6c0.9,8.6,10.2,23.3,24.7,22.9
	c10.4-0.3,20.4-13.5,25.7-21.5c2.5-3.7,5.2-3.1,5.2-3.1l-2.1-0.9c0,0-1.2-0.3-3.3,2.2c-4.5,5.4-14.6,15.5-19,17.8
	c-6,3.2-12.3,3.1-11.7-8c0.6-11.1,3.6-15.6,2.3-21.2C897.7,262.8,892.7,259.3,892.7,259.3z"/>
<path class="st2" d="M881.3,282.4l4.5,1.6c0,0,1.2,0.3,1.6,2.3c0.4,2,3.8,11,3.9,12.2c-0.3,0.5-0.6,0.1-0.6,0.1s-3.2-2.8-7.5-2.2
	s-9.2,2.2-12.8,0.7c-3.6-1.4-2.8-4.6,0.9-7.9c3.7-3.3,5.6-3.8,7-4.4c1.1-0.6,1.4-1.1,2.2-2.3C880.9,282.1,881.3,282.4,881.3,282.4z"
	/>
<path class="st4" d="M885,286.3c0,0,1.8,0.9,1.5,2.1c-0.3,1.4-1.1,1.9-3.2,2.8c-2.1,1-3.4,1.4-4.7,2.7c-1.2,1.1-1.6,2.1-2.3,1.7
	c-0.7-0.4-0.3-3.5,1.4-4.9c1.7-1.4,1.8-0.8,4-2.4c1.8-1.4,1.4-1.5,2.2-2.1C884.2,286,885,286.3,885,286.3z"/>
<path class="st2" d="M887.4,256.4c0,0,7.9,1,8.2,4.3c-1.7,3-6.4,12.2-8.4,20.8c-0.3,1-0.8,1.8-1.6,1.7s-4.3-1.5-4.3-1.5
	s-1.2,0.1-1.1-3.8c0-3.9,0.1-12.2,5.6-20.4C886.5,256.6,887.4,256.4,887.4,256.4z"/>
<path class="st43" d="M883.1,262.3c0,0,1.6-1,4-0.5c2.4,0.5,2.6,4,2,5.7c-0.4,0.9-2.4,2.8-5.1,1.7
	C881.2,267.9,883.1,262.3,883.1,262.3z"/>
<path class="st44" d="M884.5,262.2c0.2,0,3.5,0.2,3.2,4.1c-0.2,2-2,2.7-3,2.8c-1.5,0.1-3.6-1.2-3.4-3.7
	C881.6,263.1,883.7,262.1,884.5,262.2z"/>
<path class="st2" d="M899.8,260.3c0,0,2.9-1.9,4.4,0c0.3,1.6-0.7,2.9-2.3,3.6C901.3,264,899.8,260.3,899.8,260.3z"/>
<path class="st2" d="M887.7,251c0,0-2.1-1.6-4.5,0.3c-1.4,1.2-1,3.6,0.5,3.6c1.5,0,2.6-0.4,3.2-1.2
	C887.7,252.9,887.9,252.2,887.7,251z"/>
<path class="st45" d="M883.8,251c0,0,2.3,1,2,3.8c-1.1,0.4-2.9,0.5-3.3-0.8C881.9,252.7,882.7,251.1,883.8,251z"/>
<path class="st45" d="M899.8,260.3c0,0,2.5-0.1,1.9,3.6c-1,0.2-2.8,0.2-3-1.3C898.6,260.9,899.8,260.3,899.8,260.3z"/>
<path class="st2" d="M891.3,254.5l-3.8-2.4c0,0-1.3-0.4-1.1,1c0.6,0.5,4.4,2.7,4.4,2.7L891.3,254.5z"/>
<path class="st46" d="M883.5,247.4c0,0-1.2,0.2-0.5,0.9c0.2,0.2,0.5,0.2,0.7-0.3c0.2-0.2,0.7-0.3,1.6,0.2c0.9,0.5,1.3,0.2,1.4,0.1
	s-0.2-0.3-0.2-0.3s-0.5,0.1-1.7-0.5C884.3,247.3,883.5,247.4,883.5,247.4z"/>
<path class="st47" d="M887.7,246.5l-2.3-1.3c0,0-1,0.2-0.8,1.5c1,0.5,2.3,1.4,2.3,1.4L887.7,246.5z"/>
<path class="st48" d="M906.7,234.8c0,0,0.2,3.7-0.3,4.4c-0.4,0.8-2.1,3.3-6.8,5.1c-4.8,1.8-5.6,2-5.6,2s-0.3,1.9-0.7,2.3
	c-0.4,0.4-3.6,2.4-4.2,2.3c-0.6-0.1-0.5-0.6-0.1-1.1c0.4-0.5,2.1-0.4,1.9-1.8c0-0.3-1-0.2-1.3,0.1c-0.3,0.3-1.5,2.2-2.3,2.2
	c-1.4,0-1.8-3.4-1-4.5c0.8-1.1,5.8-2.1,5.8-2.1s9.1-6,9.7-6.7c0.6-0.8,1.1-2,1.1-2.8C904.4,234.2,906.7,234.8,906.7,234.8z"/>
<path class="st3" d="M896.2,250.1c1,0.3,3.4,1.3,2.9,1.9c-0.8,1-7.7-0.6-6.6-1.8C893,249.5,895.1,249.8,896.2,250.1z"/>
<path class="st49" d="M884.9,241.3l5.1,6.7l-0.4,0.3l-5-6.8L884.9,241.3z"/>
<path class="st50" d="M890.3,247.8c0,0,1-0.2,0.7,1.1c-0.3,0.7-1.3,1.7-2,0.9C888.5,249.1,889.7,247.9,890.3,247.8z"/>
<path class="st51" d="M890.5,248.4c0,0,2,1.3,1.3,4c-0.7,2.7,0.5,3.2,0.9,3.4c0.6,0.3,1.9,0.6,3.6-1.7c1.7-2.2,4.2-1.1,4.8-0.7
	c-0.4,0.6-0.6,1.1-0.5,1.6c-0.7-0.4-1.8-1.7-3.3,0.1c-1.5,1.7-2.8,3-5.5,1.9c-2.7-1.1-1.1-4.3-1.2-5.7c-0.1-1.3-0.5-1.4-0.9-1.8
	C889.7,249.1,889.7,248.6,890.5,248.4z"/>
<path class="st52" d="M916.9,239.2l19.1,12l0.1-22.6L917,217.8L916.9,239.2z"/>
<path class="st53" d="M917,217.5l26.1-14.8l18.9,10.9l-26.1,15L917,217.5z"/>
<path class="st53" d="M935.9,251.3l25.6-14.9l0.2-22.6L936,228.6L935.9,251.3z"/>
<path class="st54" d="M961.9,213.5v5l-26,15.4l0-5.4L961.9,213.5z"/>
<path class="st54" d="M917,217.5v5l19,11.1l0-5.1L917,217.5z"/>
<path class="st55" d="M913.9,265c0,0,5.9,1.3,12.1-3.2c6.1-4.6,8.5-8.8,8.6-11.5c-1.5-1-3.3-2-3.3-2s-3.7,12.3-12,13.4
	c-1.5,0.3-3.1,1.6-3.1,1.6L913.9,265z"/>
<path class="st56" d="M928,245c0,0,5.4,2.5,2.9,7.5c-2.5,5-7.6,9.8-13.1,9.7c-5.5-0.1,3.3-11.6,3.3-11.6S924,243.8,928,245z"/>
<path class="st3" d="M932.3,275.6c0,0,3.8,2.2,8.4-0.6c4.6-2.8,9.1-6.5,9.1-6.5s-1.3-3.9-3.4-3.2
	C944.3,265.9,932.1,275.6,932.3,275.6z"/>
<path class="st21" d="M914.7,288c0,0,0.4,1.2-0.7,1.9c-1.1,0.7-5.3,2.8-6.8,3.5c-1.2,0.6-5,2.1-6.9-0.2c-0.1-0.5-0.3-0.9,0.1-1.1
	c0.6,0.5,2.3,1.4,4.1,1C906.2,292.9,914.7,288,914.7,288z"/>
<path class="st28" d="M914,286.3l0.2,2c0,0-5.4,3.7-9.3,4.9c-3.8,1.2-5.5-1.8-3.3-3.3c2.2-1.5,4.1-2.5,4.8-4
	C907.2,284.5,914,286.3,914,286.3z"/>
<path class="st29" d="M900.9,290.4c0,0,2.6,0.4,4.2,2.7c-1.5,0.5-2.9,0.7-4.6-0.2C899.7,292.5,900.1,291.1,900.9,290.4z"/>
<path class="st29" d="M913.9,286c0,0-2.7,0.5-2.6,4.2c1.2-0.5,2.7-1.3,3.2-2C914.3,285.9,913.8,285.9,913.9,286z"/>
<path class="st57" d="M926.4,253.1c0,0,0.8,2.3-3.6,5.8c-4.5,3.5-8.9,6.3-10.2,8.8c-1.3,2.5,0.6,10.4,1,13.9c0.4,3.5,1.3,5-0.4,5.6
	c-1.7,0.6-5.5,0.9-7-0.6c0.1-1.2,0.4-1.4,0.2-3.2c-0.2-1.8-1.7-11.6-2.2-13.9c-0.4-2.3-2-3.4,6.2-11.8
	C918.6,249.2,926.4,253.1,926.4,253.1z"/>
<path class="st58" d="M908.8,220.7c0,0-3.6-0.9-4.5,3.7c-0.9,4.6-1.5,9.7-1.5,9.7s1.2,1.3,3.5,1.2
	C906.7,232.4,908.8,220.7,908.8,220.7z"/>
<path class="st8" d="M914.5,220.5c0,0-3.2-1.4-5.3-0.6c-2.2,0.8-4.2,2-3.8,7.9c0.4,5.9,2.1,25.2,2.5,26.1c0.6,0.9,6.3,5.3,11.3,4.3
	c5-1,8-3.4,8.1-5.6c0-2.1-1.3-11.7-1.7-17.9c-0.4-6.2,1.1-9.1-6.9-12.7C915.5,220.7,914.5,220.5,914.5,220.5z"/>
<path class="st47" d="M902.8,253.8l5.2,2.9c0,0-0.9,0.1-0.9,1.6c-0.9-0.4-5.3-2.6-5.3-2.6S901.7,253.8,902.8,253.8z"/>
<path class="st48" d="M918.7,238.7c0,0,3.4,1.1,5.8-0.5c0.1,1.5-0.1,5.6-0.6,6.9c-0.5,1.2-2.7,3.4-4.3,4.3
	c-1.6,0.9-10.7,5.6-10.7,5.6s-2.6,2.7-4.1,2.8c-1.5,0.1-3-0.6-3-1.6c0.1-1,0.1-2,2.6-3.2c2.5-1.1,9.2-6.2,10.6-7.3
	c1.4-1,3.1-2.2,3.2-3.2C918.5,241.6,918.7,238.7,918.7,238.7z"/>
<path class="st58" d="M921.5,225.8c0,0,1.7-1.2,3.2,0.8c1.5,2,2.1,11.1,2.1,11.1s-3.5,2.6-6.3,2c-2.7-0.6-2.1-1.4-2-4.8
	C918.5,231.5,918.5,227.8,921.5,225.8z"/>
<path class="st48" d="M916.4,215.1c0,0-0.9,4.5,1.1,5.9c1.9,1.4,2.2,1.3,2.2,1.3s-1.7,0.8-4.4,4.1c-2.1,2.5-5.1,0.6-5.3-0.8
	c-0.3-2.2,0-3.3,0-4.3C910.1,220.3,916.4,215.1,916.4,215.1z"/>
<path class="st59" d="M904,213.7c0,0,1.5,6.4,3.5,8.3c1.6,1.5,2.8,1.1,3.8,0.9c1.9-0.2,3.6-2.7,4.3-4c0.7-1.2,0.1-3.9,0.1-3.9
	l-2.8-5.1L904,213.7z"/>
<path class="st60" d="M909.9,212.5c0,0,1.5,0.2,1.8,1.9c0.3,1.7,1.4,1.7,1.7,1.7c-0.1-0.6-0.4-1.7-0.3-2.7s-0.9-2.5-1.5-2.2
	C911,211.6,910.4,212,909.9,212.5z"/>
<path class="st58" d="M912.6,211.6c0,0-5.2,3-10.1,2.6c-2.2-0.1-1-2-0.2-2.4C903.4,211.8,912.6,211.6,912.6,211.6z"/>
<path class="st8" d="M911.4,211.9c0,0-8.5,0.5-9.1,0.1c-0.2-0.9-0.5-5,3.1-8.1c3.5-3.1,7.9-1.6,9.1-1c1.2,0.6,4.8,3.4,4.5,7.3
	c-0.3,3.9-2.3,6.7-3.8,7.1c-0.8,0.2-2.1-3.4-2.3-4.2C912.5,211.9,911.9,211.9,911.4,211.9z"/>
<path class="st49" d="M900.8,250.4l-2.5,1.5c0,0-0.4,0.2-0.4,1.4c0.2,0.1,0.4-0.2,0.4-0.2s-0.1-0.7,0.3-1.1c0.5-0.4,2.3-1.2,2.3-1.2
	L900.8,250.4z"/>
<path class="st19" d="M902.6,246.9c0,0,2.9,1.1,2.6,4.5c-0.1,1.7-1.7,1.6-2,1.6c-0.9-0.1-2.9-1.4-2.8-4.1
	C900.5,246.5,902.6,246.9,902.6,246.9z"/>
<path class="st4" d="M947.9,259.2c0,0,2.3,2.9,1.4,4c-0.9,1.1-6.7,4.1-12.6,8.9c-5.9,4.8-8.5,5.6-9.4,6.5c-0.9,0.9-2.3,2.8-6,2.5
	c0.4-2.2,1.4-14.2,12.7-20.5C943.6,255.4,947.9,259.2,947.9,259.2z"/>
<path class="st4" d="M928.7,281.5c0.7-0.9,3.7-3.4,4.3,0.2c0.6,3.4-2.5,7-3.9,7.1c-1.4,0.1-3.1-0.7-2.1-4.4
	C927.3,283.6,927.9,282.4,928.7,281.5z"/>
<path class="st61" d="M903.2,253.7L902,253c0,0-1.6,0.3-1.4,2.2c0.8,0.6,1.3,0.7,1.3,0.7S901.7,254.3,903.2,253.7z"/>
<path class="st19" d="M883.6,237.7c0,0,2.6,0.8,2.5,4.5c0,0.8-0.9,1.9-2.4,1.4c-0.9-0.3-2.7-1.9-2.6-3.8
	C881.2,237.1,883.6,237.7,883.6,237.7z"/>
</svg>
