<svg width="52" height="52" viewBox="0 0 52 52" fill="none" xmlns="http://www.w3.org/2000/svg">
<rect width="52" height="52" fill="white" fill-opacity="0.01"/>
<path d="M40 5V12.9616C40 18.8462 36.4715 23.8077 31.4635 26C36.4716 28.1923 40 33.2693 40 39.0384V47H12V39.0384C12 33.1538 15.5285 28.1923 20.5365 26C15.5285 23.8077 12 18.7307 12 12.9616V5H40Z" fill="#EDF3FD"/>
<rect x="10" y="3" width="32" height="2" rx="1" fill="#ABCBF5"/>
<rect x="10" y="47" width="32" height="2" rx="1" fill="#ABCBF5"/>
<path d="M25.5217 26.0002C25.9442 26.0002 15 21.0614 15 15.0002H37C36.8884 21.0614 25.9442 26.0002 25.5217 26.0002Z" fill="#ADCAF7"/>
<path d="M20.913 40.0002C19 40.0002 15 44.4908 15 47.0002H37C37 44.3587 33 40.0002 31.087 40.0002H20.913Z" fill="#96BBF8"/>
</svg>
