<svg id="Layer_1" data-name="Layer 1" xmlns="http://www.w3.org/2000/svg" xmlns:xlink="http://www.w3.org/1999/xlink" viewBox="0 0 115 33.19"><defs><linearGradient id="linear-gradient" x1="36.07" y1="-19.41" x2="61.96" y2="6.48" gradientTransform="matrix(0.97, 0.23, -0.23, 0.97, -32.68, 13.29)" gradientUnits="userSpaceOnUse"><stop offset="0.15" stop-color="#00aeef"/><stop offset="0.36" stop-color="#00abea"/><stop offset="0.62" stop-color="#00a1da"/><stop offset="0.9" stop-color="#0091c0"/><stop offset="1" stop-color="#008ab6"/></linearGradient><linearGradient id="linear-gradient-2" x1="4.33" y1="10.54" x2="34.05" y2="10.54" gradientUnits="userSpaceOnUse"><stop offset="0.15" stop-color="aqua"/><stop offset="0.29" stop-color="#05fdfd"/><stop offset="0.46" stop-color="#15f5f9"/><stop offset="0.65" stop-color="#2feaf1"/><stop offset="0.86" stop-color="#52d9e6"/><stop offset="0.99" stop-color="#6fccdd"/></linearGradient><linearGradient id="linear-gradient-3" x1="14.44" y1="11.01" x2="30.84" y2="27.41" gradientUnits="userSpaceOnUse"><stop offset="0.16" stop-color="#6a00c4" stop-opacity="0"/><stop offset="0.29" stop-color="#4d2fd0" stop-opacity="0.27"/><stop offset="0.42" stop-color="#325cdb" stop-opacity="0.53"/><stop offset="0.53" stop-color="#1d7fe3" stop-opacity="0.73"/><stop offset="0.64" stop-color="#0d99ea" stop-opacity="0.88"/><stop offset="0.72" stop-color="#03a8ee" stop-opacity="0.97"/><stop offset="0.78" stop-color="#00aeef"/></linearGradient><linearGradient id="linear-gradient-4" x1="26.76" y1="27.6" x2="26.76" y2="14.83" gradientUnits="userSpaceOnUse"><stop offset="0.19" stop-color="#e9c1f8"/><stop offset="0.26" stop-color="#ecc7f8"/><stop offset="0.7" stop-color="#fae8fb"/><stop offset="0.93" stop-color="#fff5fc"/></linearGradient></defs><title>logo2</title><text transform="translate(43.94 15.41) scale(1.07 1)" style="font-size:15.066339492797852px;fill:#008ab6;font-family:GeomGraphicW03-BoldItalic;font-weight:700;font-style:italic">ByHand</text><text transform="translate(42.34 29.66) scale(1.13 1)" style="font-size:14.037795066833496px;fill:#008ab6;font-family:GeomGraphicW03-BoldItalic;font-weight:700;font-style:italic">Delivery</text><path d="M22.62,33.07l-18-3.84a4.19,4.19,0,0,1-3.49-5.05l4.33-16a4.76,4.76,0,0,1,5.68-3.1l18,3.84A4.2,4.2,0,0,1,32.64,14L28.31,30A4.77,4.77,0,0,1,22.62,33.07Z" transform="translate(-1 0)" style="fill:url(#linear-gradient)"/><path d="M19.89,6.16c-.36.86.39,1.69,1.17,1.32a.86.86,0,0,0,.4-.42c.36-.87-.39-1.7-1.17-1.33A.84.84,0,0,0,19.89,6.16Z" transform="translate(-1 0)" style="fill:#00424c"/><path d="M20.5,6.8l.2.4.24-.4c.3-.52,2.94-5.08,1.18-6.5a1.07,1.07,0,0,0-1.54,0C19.52,1.38,19.26,4.36,20.5,6.8Zm.41-6a.57.57,0,0,1,.72-.13,1.88,1.88,0,0,1,.18.12c1.06.86-.24,3.84-1.06,5.34C19.81,3.87,20.18,1.46,20.91.76Z" transform="translate(-1 0)" style="fill:#00424c"/><path d="M20.8,6.57l.39.15A5.41,5.41,0,0,0,22.27,7c1.81.29,3.55-.35,4.12-1.32a1.19,1.19,0,0,0-.19-1.5c-1.41-1.46-4.71,1.7-5.08,2.06Zm1-.24c.93-.84,2.61-2.11,3.59-2a.78.78,0,0,1,.45.23.62.62,0,0,1,.13.81C25.52,6.17,23.69,6.86,21.8,6.33Z" transform="translate(-1 0)" style="fill:#00424c"/><path d="M27.22,16.73,8.66,12.6C6.05,12,4.12,10.92,4.35,10.16L6,4.69c.23-.76,2.54-.92,5.15-.34L29.72,8.48c2.61.58,4.54,1.68,4.31,2.45l-1.66,5.46C32.14,17.16,29.83,17.31,27.22,16.73Z" transform="translate(-1 0)" style="fill:url(#linear-gradient-2)"/><path d="M20.76,6.2c-.22-.46-2.24-4.47-4.08-3.53A1.21,1.21,0,0,0,16,4c.19,1.09,1.62,2.23,3.43,2.52a5.19,5.19,0,0,0,1.12.06H21ZM16.48,3.89a.63.63,0,0,1,.39-.72.89.89,0,0,1,.51-.08c1,.16,2.12,1.89,2.71,3C18.12,6,16.63,4.76,16.48,3.89Z" transform="translate(-1 0)" style="fill:#00424c"/><path d="M29.8,15.16l-.13.68C20.86,17.69,7.14,12.3,4.16,11.07l.1-.53c2,.84,16.9,6.88,25.46,4.64Z" transform="translate(-1 0)" style="fill:#00424c"/><path d="M20.56,6.31l.8.32c.62,9.22-8.65,21.29-10.75,23.9L10,30.28c1.42-1.75,11.71-14.8,10.58-23.89A.21.21,0,0,1,20.56,6.31Z" transform="translate(-1 0)" style="fill:#00424c"/><path d="M32.36,15a8.39,8.39,0,0,0-2.72-.46h-8.5a2.17,2.17,0,0,0,2.29,2h2.28v.77H14.84a1.08,1.08,0,0,0-1.14,1h0a1.08,1.08,0,0,0,1.14,1h8v.74H13.69a1,1,0,1,0,0,2h9.14v.73H15.22a1.13,1.13,0,0,0-1.2,1,1.07,1.07,0,0,0,1.14,1.07h7.67v.74h-5a1.13,1.13,0,0,0-1.2,1,1.07,1.07,0,0,0,1.14,1.07H28.93Z" transform="translate(-1 0)" style="fill:url(#linear-gradient-3)"/><path d="M23.11,14.37a2.18,2.18,0,0,0,2.29,2h2.28v.77H16.82a1.08,1.08,0,0,0-1.15,1h0a1.09,1.09,0,0,0,1.15,1h8v.73H15.67a1.09,1.09,0,0,0-1.15,1h0a1.08,1.08,0,0,0,1.15,1H24.8v.74H17.19a1.14,1.14,0,0,0-1.2,1,1.08,1.08,0,0,0,1.14,1.07H24.8v.74h-5a1.14,1.14,0,0,0-1.21,1,1.08,1.08,0,0,0,1.14,1.07H31.61c4.08,0,7.39-2.94,7.39-6.57h0c0-3.62-3.31-6.56-7.39-6.56Z" transform="translate(-1 0)" style="fill:url(#linear-gradient-4)"/></svg>