<svg id="Layer_1" data-name="Layer 1" xmlns="http://www.w3.org/2000/svg" xmlns:xlink="http://www.w3.org/1999/xlink" viewBox="0 0 120 23"><defs><style>.cls-1{font-size:11.05px;fill:#008ab6;font-family:GeomGraphicW03-BoldItalic;font-weight:700;font-style:italic;}.cls-2{fill:url(#linear-gradient);}.cls-3{fill:#00424c;}.cls-4{fill:url(#linear-gradient-2);}.cls-5{fill:url(#linear-gradient-3);}.cls-6{fill:url(#linear-gradient-4);}</style><linearGradient id="linear-gradient" x1="37.79" y1="-19.76" x2="56.71" y2="-0.84" gradientTransform="matrix(0.97, 0.23, -0.23, 0.97, -33.68, 11.75)" gradientUnits="userSpaceOnUse"><stop offset="0.15" stop-color="#00aeef"/><stop offset="0.36" stop-color="#00abea"/><stop offset="0.62" stop-color="#00a1da"/><stop offset="0.9" stop-color="#0091c0"/><stop offset="1" stop-color="#008ab6"/></linearGradient><linearGradient id="linear-gradient-2" x1="4.72" y1="7.3" x2="28.96" y2="7.3" gradientUnits="userSpaceOnUse"><stop offset="0.15" stop-color="aqua"/><stop offset="0.29" stop-color="#05fdfd"/><stop offset="0.46" stop-color="#15f5f9"/><stop offset="0.65" stop-color="#2feaf1"/><stop offset="0.86" stop-color="#52d9e6"/><stop offset="0.99" stop-color="#6fccdd"/></linearGradient><linearGradient id="linear-gradient-3" x1="13.29" y1="6.79" x2="25.86" y2="19.37" gradientUnits="userSpaceOnUse"><stop offset="0.16" stop-color="#6a00c4" stop-opacity="0"/><stop offset="0.29" stop-color="#4d2fd0" stop-opacity="0.27"/><stop offset="0.42" stop-color="#325cdb" stop-opacity="0.53"/><stop offset="0.53" stop-color="#1d7fe3" stop-opacity="0.73"/><stop offset="0.64" stop-color="#0d99ea" stop-opacity="0.88"/><stop offset="0.72" stop-color="#03a8ee" stop-opacity="0.97"/><stop offset="0.78" stop-color="#00aeef"/></linearGradient><linearGradient id="linear-gradient-4" x1="23.02" y1="19.13" x2="23.02" y2="10.28" gradientUnits="userSpaceOnUse"><stop offset="0.19" stop-color="#e9c1f8"/><stop offset="0.26" stop-color="#ecc7f8"/><stop offset="0.7" stop-color="#fae8fb"/><stop offset="0.93" stop-color="#fff5fc"/></linearGradient></defs><title>logo1</title><text class="cls-1" transform="translate(37.75 10.47) scale(1.69 1)">ByHand</text><text class="cls-1" transform="translate(34.49 20.37) scale(1.69 1)">Delivery</text><path class="cls-2" d="M19.64,22.92,5,20.26c-2.07-.38-3.34-1.94-2.84-3.5L5.63,5.67c.5-1.56,2.58-2.52,4.64-2.14L25,6.19c2.07.37,3.34,1.94,2.85,3.5L24.28,20.77C23.78,22.33,21.71,23.29,19.64,22.92Z" transform="translate(-2 0)"/><path class="cls-3" d="M17.41,4.27a.7.7,0,0,0,.95.91.59.59,0,0,0,.33-.29.7.7,0,0,0-1-.92A.61.61,0,0,0,17.41,4.27Z" transform="translate(-2 0)"/><path class="cls-3" d="M17.91,4.71l.16.28.2-.28c.24-.36,2.39-3.52,1-4.5A1,1,0,0,0,18,.24C17.11,1,16.9,3,17.91,4.71ZM18.24.52a.53.53,0,0,1,.59-.08L19,.52c.87.6-.19,2.66-.85,3.7C17.34,2.68,17.65,1,18.24.52Z" transform="translate(-2 0)"/><path class="cls-3" d="M18.15,4.55l.32.11a5.58,5.58,0,0,0,.88.2,3.77,3.77,0,0,0,3.36-.92.73.73,0,0,0-.15-1c-1.15-1-3.84,1.18-4.15,1.43ZM19,4.39c.76-.58,2.12-1.47,2.93-1.36a.66.66,0,0,1,.36.16.38.38,0,0,1,.11.56C22,4.28,20.51,4.75,19,4.39Z" transform="translate(-2 0)"/><path class="cls-4" d="M23.39,11.59,8.25,8.73C6.12,8.33,4.55,7.57,4.74,7L6.09,3.25c.19-.53,2.07-.63,4.2-.23L25.43,5.88c2.13.4,3.7,1.16,3.51,1.69l-1.35,3.79C27.4,11.89,25.52,12,23.39,11.59Z" transform="translate(-2 0)"/><path class="cls-3" d="M18.12,4.29C17.94,4,16.29,1.2,14.79,1.85a.82.82,0,0,0-.57.94c.16.76,1.32,1.55,2.8,1.75a4.56,4.56,0,0,0,.91,0h.35ZM14.62,2.7c0-.22.06-.39.33-.5a.82.82,0,0,1,.41-.06c.8.11,1.74,1.31,2.21,2.06C16,4.14,14.75,3.3,14.62,2.7Z" transform="translate(-2 0)"/><path class="cls-3" d="M25.5,10.51l-.11.47C18.2,12.26,7,8.53,4.58,7.67l.08-.37c1.64.59,13.79,4.77,20.77,3.22Z" transform="translate(-2 0)"/><path class="cls-3" d="M18,4.37l.66.22c.5,6.4-7.06,14.76-8.77,16.56L9.33,21C10.49,19.77,18.88,10.73,18,4.43A.13.13,0,0,1,18,4.37Z" transform="translate(-2 0)"/><path class="cls-5" d="M27.58,10.4a7.94,7.94,0,0,0-2.22-.31H18.43c0,.77.83,1.4,1.86,1.4h1.86V12H13.29a.85.85,0,0,0-.93.71h0c0,.39.42.7.93.7h6.52v.51H12.35c-.51,0-.93.32-.93.7a.85.85,0,0,0,.93.71h7.46v.51H13.6c-.5,0-1,.28-1,.66s.4.75.93.75h6.26v.51H15.69c-.5,0-1,.28-1,.66s.4.74.93.74h9.15Z" transform="translate(-2 0)"/><path class="cls-6" d="M20,10c0,.78.83,1.4,1.86,1.4h1.86v.54H14.9c-.51,0-.93.31-.93.7h0c0,.39.42.7.93.7h6.52v.51H14a.85.85,0,0,0-.93.71h0c0,.39.42.7.93.7h7.46v.51H15.21c-.5,0-1,.29-1,.67s.4.74.93.74h6.26v.51H17.3c-.5,0-1,.28-1,.66s.4.75.93.75H27c3.33,0,6-2,6-4.55h0C33,12,30.3,10,27,10Z" transform="translate(-2 0)"/></svg>