<?xml version="1.0" encoding="utf-8"?>
<!-- Generator: Adobe Illustrator 24.0.2, SVG Export Plug-In . SVG Version: 6.00 Build 0)  -->
<svg version="1.1" id="Layer_1" xmlns="http://www.w3.org/2000/svg" xmlns:xlink="http://www.w3.org/1999/xlink" x="0px" y="0px"
	 viewBox="0 0 120 120" style="enable-background:new 0 0 120 120;" xml:space="preserve">
<style type="text/css">
	.st0{fill-rule:evenodd;clip-rule:evenodd;fill:#85939A;}
	.st1{fill-rule:evenodd;clip-rule:evenodd;fill:#9BB6BD;}
	.st2{fill-rule:evenodd;clip-rule:evenodd;fill:#BECED5;}
	.st3{fill-rule:evenodd;clip-rule:evenodd;fill:#5E7EB2;}
	.st4{fill-rule:evenodd;clip-rule:evenodd;fill:#98ABB7;}
	.st5{fill-rule:evenodd;clip-rule:evenodd;fill:#FFFFFF;}
	.st6{fill-rule:evenodd;clip-rule:evenodd;fill:#CFDFEC;}
	.st7{fill-rule:evenodd;clip-rule:evenodd;fill:#7899CF;}
	.st8{fill-rule:evenodd;clip-rule:evenodd;fill:#748EA1;}
	.st9{fill-rule:evenodd;clip-rule:evenodd;fill:#99B2E1;}
	.st10{fill-rule:evenodd;clip-rule:evenodd;fill:#BED6EA;}
	.st11{fill-rule:evenodd;clip-rule:evenodd;fill:#ECC7A8;}
	.st12{fill-rule:evenodd;clip-rule:evenodd;fill:#A1BEC5;}
	.st13{fill-rule:evenodd;clip-rule:evenodd;fill:#ACC2CF;}
	.st14{fill-rule:evenodd;clip-rule:evenodd;fill:#6B7279;}
	.st15{fill-rule:evenodd;clip-rule:evenodd;fill:#F54070;}
	.st16{fill-rule:evenodd;clip-rule:evenodd;fill:#BDD9EB;}
	.st17{fill-rule:evenodd;clip-rule:evenodd;fill:#A0BAC0;}
	.st18{fill-rule:evenodd;clip-rule:evenodd;fill:#BFCFD5;}
	.st19{fill-rule:evenodd;clip-rule:evenodd;fill:#A3B4C1;}
	.st20{fill-rule:evenodd;clip-rule:evenodd;fill:#626B6E;}
	.st21{fill-rule:evenodd;clip-rule:evenodd;fill:#A8BAC8;}
	.st22{fill-rule:evenodd;clip-rule:evenodd;fill:#8BB2F0;}
	.st23{fill-rule:evenodd;clip-rule:evenodd;fill:#7198AA;}
	.st24{fill-rule:evenodd;clip-rule:evenodd;fill:#D3E7FD;}
	.st25{fill-rule:evenodd;clip-rule:evenodd;fill:#AEC7CC;}
	.st26{fill-rule:evenodd;clip-rule:evenodd;fill:#E7EDE0;}
	.st27{fill-rule:evenodd;clip-rule:evenodd;fill:#F5DC5F;}
	.st28{fill-rule:evenodd;clip-rule:evenodd;fill:#D3E2E6;}
	.st29{fill-rule:evenodd;clip-rule:evenodd;fill:#CADCDE;}
	.st30{fill-rule:evenodd;clip-rule:evenodd;fill:#E9C5AD;}
	.st31{fill-rule:evenodd;clip-rule:evenodd;fill:#A7C9E4;}
	.st32{fill-rule:evenodd;clip-rule:evenodd;fill:#7EACBF;}
	.st33{fill-rule:evenodd;clip-rule:evenodd;fill:#A6BAC8;}
	.st34{fill-rule:evenodd;clip-rule:evenodd;fill:#CD9E43;}
	.st35{fill-rule:evenodd;clip-rule:evenodd;fill:#FFBE40;}
	.st36{fill-rule:evenodd;clip-rule:evenodd;fill:#BF8E30;}
	.st37{fill-rule:evenodd;clip-rule:evenodd;fill:#849299;}
	.st38{fill-rule:evenodd;clip-rule:evenodd;fill:#94A2AA;}
	.st39{fill-rule:evenodd;clip-rule:evenodd;fill:#6A7780;}
	.st40{fill-rule:evenodd;clip-rule:evenodd;fill:#005F75;}
	.st41{fill-rule:evenodd;clip-rule:evenodd;fill:#008AB6;}
	.st42{fill-rule:evenodd;clip-rule:evenodd;fill:#FECFB7;}
	.st43{fill-rule:evenodd;clip-rule:evenodd;fill:#510000;}
	.st44{fill-rule:evenodd;clip-rule:evenodd;fill:#8DBDE2;}
</style>
<path class="st0" d="M40.5,64.9c-3.6-2-6.4-0.3-6.4,3.9s2.9,9.3,6.4,11.3c3.6,2,6.4,0.3,6.4-3.9C47,72,44.1,67,40.5,64.9z"/>
<path class="st1" d="M40.7,67.6c-2.3-1.3-4.1-0.2-4.1,2.4c0,2.7,1.9,5.9,4.1,7.2c2.3,1.3,4.1,0.2,4.1-2.4
	C44.8,72.2,42.9,68.9,40.7,67.6z"/>
<path class="st2" d="M40.8,69.5c-1.5-0.8-2.7-0.2-2.7,1.5c0,1.7,1.2,3.7,2.7,4.6c1.5,0.8,2.7,0.2,2.7-1.5
	C43.4,72.4,42.2,70.3,40.8,69.5z"/>
<path class="st3" d="M44.7,74.8l2.3-1c0,0,4.1-0.3,5.3,5.3c0.8,3.8-3.2,4.6-3.2,4.6s1.7-3.2-0.3-6C46.9,75.1,45.3,74.9,44.7,74.8z"
	/>
<path class="st4" d="M46.5,72.7l-0.2,1.4c0,0,15.4,18.3,22.1,17.5c3.2,0.1,7.5-3.4,3.1-19.3c-1.2-1.5-4.6-2.6-4.6-2.6L46.5,72.7z"/>
<path class="st5" d="M68.5,76.4c0,0-0.2,0.6,0.1,0.8c0.3,0.3,3.5,2.4,4,2.6c0.1-0.7-0.1-1.1-0.1-1.1S68.7,76.4,68.5,76.4z"/>
<path class="st6" d="M68.7,76.5c0,0,3.1,2.1,4.1,2.5c0.6-1,0.1-2.2-0.1-2.8c-0.3-0.5-0.8-0.6-1.6-0.6C70.3,75.6,68.9,76.2,68.7,76.5
	z"/>
<path class="st7" d="M40.2,50.8c0,0-4.1,1-6.6,6.7c2.5,3.8,11.7,12.5,21.7,13.4c4.4,0.4,6.8,0.4,9-3.8c2.2-4.2-3.6-4.2-4.3-4.6
	C59.3,62,47.5,48.4,40.2,50.8z"/>
<path class="st8" d="M68.6,75.1c0,0-0.1,1,0,1.3c0.3,0.4,2,1.3,2,1.3s0.1-1.5-0.4-2C69.6,75.3,68.6,75.1,68.6,75.1z"/>
<path class="st9" d="M32.3,59.2c0,0,2.4-6.4,12.6-1.1s11,18.5,11,18.5s-1.1,0.4-2.3,0.2c-0.2-1.7-1.8-12.2-10-16.4
	C35.4,56.2,32.3,59.2,32.3,59.2z"/>
<path class="st7" d="M55.8,76.8c0,0-0.2,1.9-0.1,2.2c0.1,0.4,0,0.5,0.9,0.6c0.9,0.1,2.5,0.4,4.4-0.4c1.9-0.8,6.6-2.2,6.8-6.5
	c-0.9-1.4-1.3-1.4-1.3-1.4s-3.8,5.9-7.9,5.7C56.5,76.9,55.8,76.8,55.8,76.8z"/>
<path class="st3" d="M55.9,76.7c0,0,5,0.9,7.3-0.7c2.3-1.7,1.3-6.3,0.5-7.2c-0.8-0.9-0.9,3.8-9.2,1.5C55.4,73,55.6,73.8,55.9,76.7z"
	/>
<path class="st10" d="M39.3,50.8c0,0-0.2,1.7,2.7,3.1c2.9,1.3,2,0.5,2,0.5l-0.4-1.2c0,0-1.7,0-2.8-1.5
	C39.7,50.1,39.3,50.8,39.3,50.8z"/>
<path class="st11" d="M29.6,55.8c0,0-1.2-0.6-2.2,1.1c-0.2,1.3,0.1,1.6,0.4,1.8c0.2,0.2-0.3-1.1,0.5-1.8
	C28.9,56.2,29.6,55.8,29.6,55.8z"/>
<path class="st12" d="M38.6,50.6c0,0-3.5,1.2-5.6,5.4c0.2,0.9,0.7,1.7,0.7,1.7s1.1-3.2,5.5-6.4C39.1,50.9,38.6,50.6,38.6,50.6z"/>
<path class="st13" d="M31.1,57.2l0.9,0.9l1.5-1.1L33,56.1L31.1,57.2z"/>
<path class="st9" d="M29.6,55.8c0,0,2.4,0.8,2.4,2.9c0,1-1.2,1.1-2.1,1c-0.9-0.1-2.1-0.7-2.3-1C27.6,58.1,27.4,56.9,29.6,55.8z"/>
<path class="st14" d="M91.6,106.8c0,0,3.7-0.1,6.1-3.4c1.3-2.6,1.2-7.3-1.5-11c-3-4.1-6.7-4.5-6.7-4.5l-4.9,0.9c0,0,7.3,2.9,8.5,7.7
	C94.3,101.3,94.4,104.4,91.6,106.8z"/>
<path class="st15" d="M37.2,49.6c0,0-4.6,0.9-4.6,5.2c0.1,0.6,0.4,1.4,0.4,1.4s1.7-3.8,5.3-5.5C37.6,49.8,37.2,49.6,37.2,49.6z"/>
<path class="st16" d="M35.6,48.9l1,4.1l0.6-0.6l-1-3.1L35.6,48.9z"/>
<path class="st17" d="M89.4,93.8c0,0-4.3-4.2-6.3-0.2c-1,2,0.3,6.4,2.3,8.4c2,2,5.5,3.8,6.7,0.6C93.8,98.3,89.4,93.8,89.4,93.8z"/>
<path class="st0" d="M87.9,89.9c-3.9-2.2-7-0.4-7,4c0,4.4,3.1,9.8,7,12c3.9,2.2,7,0.4,7-4C94.9,97.5,91.7,92.1,87.9,89.9z"/>
<path class="st18" d="M87.5,94c-1.8-1-3.3-0.2-3.3,1.9c0,2.1,1.5,4.6,3.3,5.6c1.8,1,3.3,0.2,3.3-1.9C90.8,97.5,89.3,95,87.5,94z"/>
<path class="st19" d="M84.7,88.3c0,0,0.9,2.4,1.8,4.8c1,2.5,1.9,5,1.2,5.1c-0.9,0.7-3.5-6.4-3.5-6.4l-1.5-3.3L84.7,88.3z"/>
<path class="st20" d="M64.2,52.9l8.4,5.4c0,0,1,0.7,1.7,2C75,61.5,73.6,75,73.6,75s-1.1,1.5-2.7,1.4c-1.6-0.1-2.6-1.5-2.6-1.5
	l-1-7.6l-6.8-9.9L64.2,52.9z"/>
<path class="st21" d="M82.5,88.8l4,8.6c0,0,0.6,1.2,1.1,1c0.5-0.2,0-1.5,0-1.5l-3.3-8.3L82.5,88.8z"/>
<path class="st9" d="M73.1,57.7l-3.2,1.9l1.1,0.7l2.4-1.6L73.1,57.7z"/>
<path class="st22" d="M71.6,53.1c0,0,1.9,7.3,2.2,8.2c2.7-0.6,5.3-2.3,5.3-2.3s-1.5-6.3-1.9-6.9c-0.4-0.6-1.9-0.3-2.9-0.1
	C73.3,52.1,71.6,53.1,71.6,53.1z"/>
<path class="st9" d="M48.3,76.4c-0.7-0.8-4-3.5-4.7,0.2c-0.8,4.3,2.5,7.5,4,7.6c1.5,0.1,3.3-0.9,2.4-4.7
	C49.8,78.6,49,77.2,48.3,76.4z"/>
<path class="st23" d="M81.3,57c0,0-8.3,1.4-10,7.7c-1.5,5.4,0,8.1,0.5,10.3c0.5,2.2,2.8,14.7-2.6,16.5c4,0.6,5.6-4.1,4.6-10
	c-0.9-5.9-3.2-13.2-1.4-15.9c1.7-2.6,5.7-7.7,8.4-8C81.4,57.5,81.9,57.4,81.3,57z"/>
<path class="st7" d="M76.9,59.3c0,0,4.3-3.8,7.4-0.6c3.1,3.3,5.9,10.5,5.1,17.4c-0.7,6.9-8.2,18.8-19.9,18.5
	C61.1,94.3,53,83.7,48.7,77.2c-2-3-4.2-2.5-4.2-2.5l1.7-0.7c0,0,1-0.2,2.6,1.8c3.7,4.3,11.8,12.5,15.3,14.3c4.9,2.5,9.9,2.5,9.5-6.4
	c-0.5-8.9-2.9-12.6-1.9-17.1C72.9,62.1,76.9,59.3,76.9,59.3z"/>
<path class="st9" d="M86.1,77.9l-3.6,1.3c0,0-0.9,0.3-1.3,1.9c-0.4,1.6-3,8.8-3.2,9.8c0.2,0.4,0.5,0.1,0.5,0.1s2.6-2.3,6-1.8
	c3.5,0.5,7.4,1.8,10.3,0.6c2.9-1.1,2.3-3.7-0.8-6.3c-3-2.6-4.5-3-5.6-3.6c-0.9-0.4-1.1-0.9-1.8-1.8C86.4,77.6,86.1,77.9,86.1,77.9z"
	/>
<path class="st24" d="M83.1,81c0,0-1.5,0.7-1.2,1.7c0.3,1.1,0.9,1.5,2.6,2.3c1.7,0.8,2.8,1.1,3.8,2.1c0.9,0.9,1.3,1.7,1.9,1.4
	c0.6-0.3,0.3-2.8-1.1-4c-1.4-1.2-1.5-0.7-3.2-1.9c-1.5-1.1-1.1-1.2-1.8-1.7C83.7,80.8,83.1,81,83.1,81z"/>
<path class="st9" d="M81.1,57c0,0-6.4,0.8-6.6,3.5c1.4,2.4,5.2,9.8,6.8,16.8c0.2,0.8,0.7,1.5,1.3,1.4c0.6-0.1,3.5-1.2,3.5-1.2
	s0.9,0.1,0.9-3.1c0-3.1-0.1-9.8-4.5-16.4C81.9,57.1,81.1,57,81.1,57z"/>
<path class="st25" d="M84.7,61.7c0,0-1.3-0.8-3.2-0.4c-1.9,0.4-2.1,3.3-1.6,4.6c0.3,0.7,1.9,2.3,4.1,1.3
	C86.2,66.2,84.7,61.7,84.7,61.7z"/>
<path class="st26" d="M83.5,61.6c-0.2,0-2.9,0.2-2.6,3.3c0.1,1.6,1.6,2.2,2.4,2.2c1.2,0.1,2.9-1,2.7-3
	C85.8,62.3,84.2,61.5,83.5,61.6z"/>
<path class="st9" d="M71.2,60.1c0,0-2.3-1.5-3.5,0c-0.2,1.3,0.6,2.3,1.9,2.9C70,63.1,71.2,60.1,71.2,60.1z"/>
<path class="st9" d="M80.9,52.5c0,0,1.7-1.3,3.6,0.3c1.1,1,0.8,2.9-0.4,2.9c-1.2,0-2.1-0.3-2.6-1S80.8,53.5,80.9,52.5z"/>
<path class="st27" d="M84.1,52.6c0,0-1.9,0.8-1.6,3.1c0.9,0.3,2.3,0.4,2.7-0.6C85.6,54,85,52.7,84.1,52.6z"/>
<path class="st27" d="M71.1,60.1c0,0-2-0.1-1.6,2.9c0.8,0.1,2.3,0.2,2.4-1C72.1,60.5,71.1,60.1,71.1,60.1z"/>
<path class="st9" d="M78,55.4l3.1-2c0,0,1-0.4,0.9,0.8c-0.5,0.4-3.6,2.2-3.6,2.2L78,55.4z"/>
<path class="st28" d="M84.3,49.7c0,0,0.9,0.2,0.4,0.7c-0.1,0.1-0.4,0.1-0.5-0.2c-0.1-0.1-0.5-0.3-1.3,0.1c-0.7,0.4-1,0.2-1.1,0.1
	c-0.1-0.1,0.1-0.3,0.1-0.3s0.4,0.1,1.3-0.4C83.7,49.6,84.3,49.7,84.3,49.7z"/>
<path class="st29" d="M80.9,48.9l1.8-1c0,0,0.8,0.1,0.7,1.2c-0.8,0.4-1.9,1.1-1.9,1.1L80.9,48.9z"/>
<path class="st30" d="M65.5,39.5c0,0-0.1,3,0.2,3.6c0.4,0.6,1.7,2.7,5.5,4.1c3.8,1.5,4.5,1.6,4.5,1.6s0.2,1.5,0.6,1.8
	c0.4,0.3,2.9,2,3.4,1.9c0.5-0.1,0.4-0.5,0-0.9s-1.7-0.3-1.5-1.5c0-0.2,0.8-0.2,1,0.1c0.2,0.2,1.2,1.8,1.9,1.8c1.1,0,1.4-2.8,0.8-3.7
	c-0.7-0.9-4.7-1.7-4.7-1.7s-7.4-4.8-7.9-5.4c-0.5-0.6-0.9-1.6-0.9-2.2C67.5,39,65.5,39.5,65.5,39.5z"/>
<path class="st7" d="M74.1,51.9c-0.8,0.2-2.7,1-2.3,1.5c0.7,0.8,6.2-0.5,5.4-1.4C76.6,51.4,74.9,51.6,74.1,51.9z"/>
<path class="st31" d="M83.1,44.7L79,50.1l0.3,0.2l4.1-5.4L83.1,44.7z"/>
<path class="st32" d="M78.8,50c0,0-0.8-0.2-0.6,0.9c0.2,0.6,1.1,1.3,1.6,0.7C80.3,51,79.3,50.1,78.8,50z"/>
<path class="st33" d="M78.6,50.5c0,0-1.6,1.1-1,3.2c0.6,2.2-0.4,2.6-0.7,2.7c-0.5,0.2-1.5,0.4-2.9-1.4c-1.3-1.8-3.4-0.9-3.8-0.6
	c0.3,0.5,0.5,0.9,0.4,1.3c0.6-0.3,1.5-1.3,2.6,0c1.2,1.4,2.2,2.4,4.4,1.5c2.2-0.9,0.9-3.5,1-4.6c0.1-1.1,0.4-1.1,0.7-1.4
	C79.3,51.1,79.3,50.6,78.6,50.5z"/>
<path class="st34" d="M57.3,43.1l-15.4,9.6l-0.1-18.2l15.4-8.7L57.3,43.1z"/>
<path class="st35" d="M57.3,25.6L36.2,13.7l-15.3,9.1L42,34.5L57.3,25.6z"/>
<path class="st35" d="M42,52.8L20.9,40.5V22.8l21,11.7L42,52.8z"/>
<path class="st36" d="M20.9,22.8v4l21.1,12l0-4.3L20.9,22.8z"/>
<path class="st36" d="M57.3,25.6v4l-15.3,8.9l0-4.1L57.3,25.6z"/>
<path class="st37" d="M59.7,63.9c0,0-4.8,1.1-9.7-2.6c-4.9-3.7-6.8-7.1-6.9-9.3c1.2-0.8,2.7-1.6,2.7-1.6s3,9.9,9.7,10.8
	c1.2,0.3,2.5,1.3,2.5,1.3L59.7,63.9z"/>
<path class="st38" d="M48.3,47.7c0,0-4.3,2-2.3,6c2,4,6.2,7.9,10.6,7.8c4.4-0.1-2.7-9.3-2.7-9.3S51.6,46.8,48.3,47.7z"/>
<path class="st7" d="M44.9,72.4c0,0-3.1,1.7-6.8-0.5c-3.7-2.2-7.3-5.2-7.3-5.2s1-3.1,2.8-2.6C35.2,64.6,45.1,72.4,44.9,72.4z"/>
<path class="st5" d="M59.1,82.4c0,0-0.3,1,0.6,1.5c0.9,0.5,4.2,2.2,5.5,2.8c1,0.5,4,1.7,5.6-0.1c0.1-0.4,0.2-0.7-0.1-0.9
	c-0.5,0.4-1.8,1.1-3.3,0.8C66,86.3,59.1,82.4,59.1,82.4z"/>
<path class="st6" d="M59.6,81l-0.2,1.6c0,0,4.4,3,7.5,4c3.1,1,4.4-1.4,2.6-2.6c-1.8-1.2-3.3-2-3.9-3.2C65.2,79.5,59.6,81,59.6,81z"
	/>
<path class="st8" d="M70.2,84.3c0,0-2.1,0.3-3.4,2.2c1.2,0.4,2.3,0.6,3.7-0.2C71.2,86,70.9,84.9,70.2,84.3z"/>
<path class="st8" d="M59.7,80.7c0,0,2.1,0.4,2.1,3.4c-1-0.4-2.2-1.1-2.6-1.6C59.4,80.7,59.8,80.7,59.7,80.7z"/>
<path class="st39" d="M49.6,54.3c0,0-0.7,1.9,2.9,4.7c3.6,2.8,7.2,5.1,8.2,7.1c1,2-0.5,8.3-0.8,11.2c-0.3,2.8-1.1,4.1,0.3,4.5
	c1.4,0.5,4.4,0.7,5.7-0.5c-0.1-1-0.3-1.2-0.1-2.6c0.2-1.5,1.4-9.3,1.8-11.2c0.4-1.8,1.6-2.8-5-9.5S49.6,54.3,49.6,54.3z"/>
<path class="st40" d="M63.8,28.2c0,0,2.9-0.8,3.6,3c0.7,3.7,1.2,7.8,1.2,7.8s-0.9,1-2.9,0.9C65.6,37.6,63.8,28.2,63.8,28.2z"/>
<path class="st41" d="M59.3,28c0,0,2.6-1.1,4.3-0.5c1.8,0.6,3.4,1.6,3.1,6.3c-0.3,4.8-1.7,20.3-2.1,21c-0.5,0.8-5.1,4.3-9.2,3.5
	c-4-0.8-6.5-2.7-6.5-4.5c0-1.7,1.1-9.4,1.4-14.4c0.3-5-0.9-7.3,5.6-10.2C58.5,28.2,59.3,28,59.3,28z"/>
<path class="st29" d="M68.7,54.9l-4.2,2.3c0,0,0.7,0.1,0.7,1.3c0.8-0.3,4.3-2.1,4.3-2.1S69.6,54.8,68.7,54.9z"/>
<path class="st30" d="M55.8,42.7c0,0-2.8,0.9-4.7-0.4c-0.1,1.2,0.1,4.5,0.5,5.5c0.4,1,2.1,2.7,3.4,3.5c1.3,0.7,8.6,4.5,8.6,4.5
	s2.1,2.2,3.3,2.2c1.2,0.1,2.5-0.5,2.4-1.3c-0.1-0.8-0.1-1.6-2.1-2.5c-2-0.9-7.4-5-8.6-5.8c-1.1-0.8-2.5-1.7-2.6-2.6
	C56,45,55.8,42.7,55.8,42.7z"/>
<path class="st40" d="M53.6,32.3c0,0-1.4-1-2.6,0.6c-1.2,1.6-1.7,8.9-1.7,8.9s2.9,2.1,5.1,1.6s1.7-1.1,1.6-3.9
	C56.1,36.9,56,33.9,53.6,32.3z"/>
<path class="st30" d="M57.7,23.7c0,0,0.7,3.6-0.9,4.7c-1.6,1.1-1.8,1.1-1.8,1.1s1.4,0.7,3.6,3.3c1.7,2,4.1,0.5,4.3-0.6
	c0.3-1.8,0-2.7,0-3.5C62.8,27.9,57.7,23.7,57.7,23.7z"/>
<path class="st42" d="M67.8,22.6c0,0-1.2,5.2-2.8,6.7c-1.3,1.2-2.3,0.8-3.1,0.7c-1.6-0.2-2.9-2.2-3.4-3.2c-0.5-1,0-3.2,0-3.2
	l2.2-4.1L67.8,22.6z"/>
<path class="st43" d="M63,21.6c0,0-1.3,0.2-1.5,1.6c-0.2,1.4-1.2,1.4-1.4,1.4c0.1-0.5,0.3-1.4,0.2-2.1c-0.1-0.7,0.7-2,1.2-1.8
	C62.1,20.8,62.6,21.2,63,21.6z"/>
<path class="st40" d="M60.8,20.9c0,0,4.2,2.4,8.2,2.1c1.8-0.1,0.8-1.6,0.2-1.9C68.2,21.1,60.8,20.9,60.8,20.9z"/>
<path class="st41" d="M61.8,21.1c0,0,6.9,0.4,7.4,0c0.2-0.7,0.4-4-2.5-6.5c-2.8-2.5-6.4-1.3-7.4-0.8c-1,0.4-3.9,2.7-3.6,5.8
	c0.3,3.1,1.8,5.4,3.1,5.7c0.7,0.2,1.7-2.7,1.8-3.4C60.8,21.1,61.4,21.1,61.8,21.1z"/>
<path class="st31" d="M70.3,52.1l2,1.2c0,0,0.3,0.2,0.3,1.2c-0.2,0-0.3-0.2-0.3-0.2s0.1-0.6-0.2-0.9c-0.4-0.4-1.9-1-1.9-1L70.3,52.1
	z"/>
<path class="st22" d="M68.9,49.3c0,0-2.3,0.9-2.1,3.6c0.1,1.4,1.3,1.3,1.6,1.3c0.7-0.1,2.3-1.1,2.2-3.3
	C70.6,48.9,68.9,49.3,68.9,49.3z"/>
<path class="st24" d="M32.3,59.2c0,0-1.9,2.3-1.1,3.2c0.7,0.9,5.4,3.3,10.2,7.2c4.7,3.9,6.9,4.5,7.6,5.3c0.7,0.7,1.9,2.3,4.8,2
	c-0.3-1.7-1.1-11.5-10.3-16.5C35.7,56.1,32.3,59.2,32.3,59.2z"/>
<path class="st24" d="M47.8,77.1c-0.6-0.7-3-2.7-3.5,0.2c-0.5,2.7,2,5.6,3.1,5.7c1.1,0.1,2.5-0.6,1.7-3.5
	C49,78.9,48.4,77.9,47.8,77.1z"/>
<path class="st44" d="M68.4,54.7l1-0.6c0,0,1.3,0.2,1.1,1.8c-0.7,0.5-1,0.6-1,0.6S69.6,55.3,68.4,54.7z"/>
<path class="st22" d="M84.2,41.9c0,0-2.1,0.6-2.1,3.6c0,0.6,0.7,1.5,1.9,1.1c0.7-0.2,2.2-1.5,2.1-3.1C86.2,41.4,84.2,41.9,84.2,41.9
	z"/>
</svg>
