<svg xmlns="http://www.w3.org/2000/svg" width="18" height="18" viewBox="0 0 18 18">
    <g fill="none" fill-rule="evenodd">
        <path stroke="#EA251B" d="M2.5.5v17h15V3.203L14.793.5H2.5z"/>
        <path fill="#EA251B" d="M0 3h14v6H0z"/>
        <path fill="#FFF" d="M3.808 6.593V8H3V4h1.363c.395 0 .71.123.946.368.235.246.353.564.353.956s-.116.702-.349.929c-.232.227-.555.34-.967.34h-.538zm0-.673h.555a.44.44 0 0 0 .357-.15c.084-.102.126-.248.126-.44 0-.2-.043-.359-.129-.477a.414.414 0 0 0-.346-.18h-.563V5.92zM6.2 8V4h1.057c.467 0 .84.148 1.117.445.277.297.419.703.424 1.22v.648c0 .526-.138.938-.416 1.238-.277.3-.66.449-1.147.449H6.201zm.807-3.327V7.33h.242c.27 0 .459-.071.569-.213.11-.142.167-.387.173-.735v-.695c0-.374-.052-.634-.157-.782-.104-.147-.282-.225-.533-.232h-.294zm4.434 1.695h-1.255V8h-.808V4h2.214v.673h-1.406v1.025h1.255v.67z"/>
    </g>
</svg>
