<svg xmlns="http://www.w3.org/2000/svg" width="16" height="18" viewBox="0 0 16 18">
    <g fill="none" fill-rule="evenodd">
        <path stroke="#333C4E" d="M.5.5v17h15V3.203L12.793.5H.5z"/>
        <g transform="translate(4 7)">
            <path fill="#333C4E" d="M0 1.498C0 1.223.214 1 .505 1H1.67a.688.688 0 0 0 .512-.273l.302-.454C2.585.123 2.81 0 2.994 0h2.012c.18 0 .41.123.51.273l.302.454c.1.15.339.273.512.273h1.165c.279 0 .505.215.505.498v4.004C8 5.777 7.77 6 7.5 6h-7a.494.494 0 0 1-.5-.498V1.498z"/>
            <circle cx="4" cy="3.333" r="1.333" fill="#FFF"/>
        </g>
    </g>
</svg>
