<svg xmlns="http://www.w3.org/2000/svg" width="22" height="22" viewBox="0 0 22 22">
    <g fill="none" fill-rule="evenodd" transform="translate(1 1)">
        <circle cx="10" cy="10" r="10" stroke="#333C4E" stroke-width="1.25"/>
        <path fill="#333C4E" d="M8.835 11.525v-.5c0-.455.097-.842.292-1.162.195-.32.528-.65 1-.994.418-.296.717-.553.898-.771a1.17 1.17 0 0 0 .27-.772.775.775 0 0 0-.326-.667c-.218-.158-.521-.236-.91-.236-.39 0-.774.06-1.154.18-.38.12-.77.283-1.168.487L7 5.602c.454-.25.945-.454 1.474-.611a6.06 6.06 0 0 1 1.737-.237c.964 0 1.713.232 2.245.695.533.464.8 1.052.8 1.766 0 .38-.06.709-.18.987a2.52 2.52 0 0 1-.543.778 7.312 7.312 0 0 1-.904.751 7.206 7.206 0 0 0-.632.508 1.107 1.107 0 0 0-.292.403 1.352 1.352 0 0 0-.077.48v.403H8.835zm-.222 2.321c0-.426.115-.725.347-.897.232-.171.515-.257.848-.257.325 0 .603.086.834.257.232.172.348.47.348.897 0 .408-.116.702-.348.883-.231.18-.51.271-.834.271-.333 0-.616-.09-.848-.271-.232-.18-.347-.475-.347-.883z"/>
    </g>
</svg>
