<svg width="25" height="24" viewBox="0 0 25 24" fill="none" xmlns="http://www.w3.org/2000/svg">
    <path fill-rule="evenodd" clip-rule="evenodd" d="M4.90275 11.622C6.01875 12.005 6.90775 12.939 7.27975 14.123L7.31975 14.243C7.74575 15.499 7.57275 16.851 6.85875 17.865C6.72875 18.049 6.75775 18.269 6.89475 18.373L8.96675 19.947C9.03975 20.002 9.11075 20.002 9.15475 19.997C9.20475 19.989 9.27775 19.962 9.33675 19.878L9.56775 19.55C10.2567 18.573 11.3667 17.97 12.5387 17.936C13.8547 17.909 15.0367 18.512 15.7727 19.575L15.8907 19.746C15.9497 19.83 16.0217 19.858 16.0727 19.866C16.1167 19.875 16.1887 19.872 16.2607 19.816L18.3217 18.261C18.4657 18.153 18.4977 17.922 18.3907 17.767L18.1307 17.392C17.4607 16.424 17.2617 15.168 17.5987 14.033C17.9647 12.797 18.8957 11.819 20.0907 11.419L20.2917 11.351C20.4527 11.298 20.5397 11.098 20.4827 10.914L19.6957 8.393C19.6587 8.275 19.5827 8.222 19.5407 8.2C19.4807 8.169 19.4157 8.164 19.3537 8.185L19.0137 8.298C17.8507 8.685 16.5677 8.475 15.5827 7.734L15.4747 7.653C14.5387 6.949 13.9817 5.814 13.9857 4.618L13.9877 4.338C13.9877 4.205 13.9247 4.122 13.8867 4.084C13.8507 4.047 13.7897 4.003 13.7037 4.003L11.1567 4C11.0007 4 10.8737 4.149 10.8727 4.333L10.8717 4.575C10.8667 5.79 10.2977 6.946 9.34975 7.669L9.22075 7.767C8.17775 8.56 6.81775 8.784 5.58575 8.364C5.53875 8.348 5.49475 8.351 5.45275 8.373C5.42075 8.389 5.36275 8.43 5.33475 8.521L4.51775 11.117C4.45875 11.306 4.55575 11.503 4.73875 11.566L4.90275 11.622ZM9.11375 22C8.62775 22 8.15575 21.842 7.75775 21.539L5.68575 19.966C4.69575 19.216 4.47675 17.773 5.19675 16.75C5.57075 16.22 5.64775 15.539 5.42775 14.893L5.37275 14.725C5.18975 14.143 4.77175 13.691 4.25475 13.514H4.25375L4.09075 13.457C2.87275 13.04 2.22275 11.749 2.60975 10.517L3.42575 7.922C3.61075 7.335 4.00975 6.861 4.54975 6.588C5.07775 6.322 5.67475 6.281 6.23275 6.472C6.83175 6.676 7.49675 6.565 8.00975 6.175L8.13875 6.077C8.59475 5.729 8.86975 5.164 8.87175 4.567L8.87275 4.326C8.87775 3.042 9.90275 2 11.1557 2H11.1597L13.7067 2.003C14.3087 2.004 14.8767 2.242 15.3047 2.673C15.7477 3.118 15.9897 3.713 15.9877 4.348L15.9857 4.627C15.9837 5.193 16.2427 5.728 16.6797 6.056L16.7867 6.137C17.2457 6.482 17.8437 6.581 18.3807 6.401L18.7197 6.288C19.2967 6.096 19.9107 6.143 20.4517 6.42C21.0067 6.704 21.4167 7.193 21.6047 7.798L22.3917 10.319C22.7717 11.537 22.1137 12.851 20.9267 13.248L20.7257 13.315C20.1497 13.509 19.6967 13.989 19.5157 14.601C19.3497 15.162 19.4457 15.779 19.7747 16.253L20.0347 16.628C20.7487 17.66 20.5207 19.108 19.5267 19.857L17.4657 21.413C16.9707 21.787 16.3637 21.938 15.7547 21.841C15.1407 21.742 14.6047 21.402 14.2457 20.884L14.1277 20.712C13.7777 20.208 13.2177 19.902 12.6307 19.935C12.0427 19.951 11.5347 20.23 11.2027 20.702L10.9717 21.03C10.6097 21.543 10.0727 21.878 9.46175 21.974C9.34475 21.992 9.22875 22 9.11375 22ZM12.4999 10.4999C11.6729 10.4999 10.9999 11.1729 10.9999 11.9999C10.9999 12.8269 11.6729 13.4999 12.4999 13.4999C13.3269 13.4999 13.9999 12.8269 13.9999 11.9999C13.9999 11.1729 13.3269 10.4999 12.4999 10.4999ZM12.4999 15.4999C10.5699 15.4999 8.99995 13.9299 8.99995 11.9999C8.99995 10.0699 10.5699 8.4999 12.4999 8.4999C14.4299 8.4999 15.9999 10.0699 15.9999 11.9999C15.9999 13.9299 14.4299 15.4999 12.4999 15.4999Z" fill="#969493"/>
    <mask id="mask0" mask-type="alpha" maskUnits="userSpaceOnUse" x="2" y="2" width="21" height="20">
        <path fill-rule="evenodd" clip-rule="evenodd" d="M4.90275 11.622C6.01875 12.005 6.90775 12.939 7.27975 14.123L7.31975 14.243C7.74575 15.499 7.57275 16.851 6.85875 17.865C6.72875 18.049 6.75775 18.269 6.89475 18.373L8.96675 19.947C9.03975 20.002 9.11075 20.002 9.15475 19.997C9.20475 19.989 9.27775 19.962 9.33675 19.878L9.56775 19.55C10.2567 18.573 11.3667 17.97 12.5387 17.936C13.8547 17.909 15.0367 18.512 15.7727 19.575L15.8907 19.746C15.9497 19.83 16.0217 19.858 16.0727 19.866C16.1167 19.875 16.1887 19.872 16.2607 19.816L18.3217 18.261C18.4657 18.153 18.4977 17.922 18.3907 17.767L18.1307 17.392C17.4607 16.424 17.2617 15.168 17.5987 14.033C17.9647 12.797 18.8957 11.819 20.0907 11.419L20.2917 11.351C20.4527 11.298 20.5397 11.098 20.4827 10.914L19.6957 8.393C19.6587 8.275 19.5827 8.222 19.5407 8.2C19.4807 8.169 19.4157 8.164 19.3537 8.185L19.0137 8.298C17.8507 8.685 16.5677 8.475 15.5827 7.734L15.4747 7.653C14.5387 6.949 13.9817 5.814 13.9857 4.618L13.9877 4.338C13.9877 4.205 13.9247 4.122 13.8867 4.084C13.8507 4.047 13.7897 4.003 13.7037 4.003L11.1567 4C11.0007 4 10.8737 4.149 10.8727 4.333L10.8717 4.575C10.8667 5.79 10.2977 6.946 9.34975 7.669L9.22075 7.767C8.17775 8.56 6.81775 8.784 5.58575 8.364C5.53875 8.348 5.49475 8.351 5.45275 8.373C5.42075 8.389 5.36275 8.43 5.33475 8.521L4.51775 11.117C4.45875 11.306 4.55575 11.503 4.73875 11.566L4.90275 11.622ZM9.11375 22C8.62775 22 8.15575 21.842 7.75775 21.539L5.68575 19.966C4.69575 19.216 4.47675 17.773 5.19675 16.75C5.57075 16.22 5.64775 15.539 5.42775 14.893L5.37275 14.725C5.18975 14.143 4.77175 13.691 4.25475 13.514H4.25375L4.09075 13.457C2.87275 13.04 2.22275 11.749 2.60975 10.517L3.42575 7.922C3.61075 7.335 4.00975 6.861 4.54975 6.588C5.07775 6.322 5.67475 6.281 6.23275 6.472C6.83175 6.676 7.49675 6.565 8.00975 6.175L8.13875 6.077C8.59475 5.729 8.86975 5.164 8.87175 4.567L8.87275 4.326C8.87775 3.042 9.90275 2 11.1557 2H11.1597L13.7067 2.003C14.3087 2.004 14.8767 2.242 15.3047 2.673C15.7477 3.118 15.9897 3.713 15.9877 4.348L15.9857 4.627C15.9837 5.193 16.2427 5.728 16.6797 6.056L16.7867 6.137C17.2457 6.482 17.8437 6.581 18.3807 6.401L18.7197 6.288C19.2967 6.096 19.9107 6.143 20.4517 6.42C21.0067 6.704 21.4167 7.193 21.6047 7.798L22.3917 10.319C22.7717 11.537 22.1137 12.851 20.9267 13.248L20.7257 13.315C20.1497 13.509 19.6967 13.989 19.5157 14.601C19.3497 15.162 19.4457 15.779 19.7747 16.253L20.0347 16.628C20.7487 17.66 20.5207 19.108 19.5267 19.857L17.4657 21.413C16.9707 21.787 16.3637 21.938 15.7547 21.841C15.1407 21.742 14.6047 21.402 14.2457 20.884L14.1277 20.712C13.7777 20.208 13.2177 19.902 12.6307 19.935C12.0427 19.951 11.5347 20.23 11.2027 20.702L10.9717 21.03C10.6097 21.543 10.0727 21.878 9.46175 21.974C9.34475 21.992 9.22875 22 9.11375 22ZM12.4999 10.4999C11.6729 10.4999 10.9999 11.1729 10.9999 11.9999C10.9999 12.8269 11.6729 13.4999 12.4999 13.4999C13.3269 13.4999 13.9999 12.8269 13.9999 11.9999C13.9999 11.1729 13.3269 10.4999 12.4999 10.4999ZM12.4999 15.4999C10.5699 15.4999 8.99995 13.9299 8.99995 11.9999C8.99995 10.0699 10.5699 8.4999 12.4999 8.4999C14.4299 8.4999 15.9999 10.0699 15.9999 11.9999C15.9999 13.9299 14.4299 15.4999 12.4999 15.4999Z" fill="white"/>
    </mask>
    <g mask="url(#mask0)">
        <rect x="0.5" width="24" height="24" fill="#969493"/>
    </g>
</svg>

