<svg xmlns="http://www.w3.org/2000/svg" width="16" height="17" viewBox="0 0 16 17">
    <g fill="none" fill-rule="evenodd" transform="translate(-2 -1)">
        <path fill="none" d="M0 0h20v20H0z"/>
        <path fill="#BBC1D2" d="M8.341 10.797c-1.04-.806-1.743-2.34-1.743-4.097 0-2.594.476-4.706 3.42-4.7 2.699.005 3.42 2.106 3.42 4.7 0 1.749-.697 3.275-1.728 4.085 0 0-.007.198-.007.322C11.704 15.072 18 10.326 18 18H2c-.027-7.662 6.33-2.893 6.354-6.903 0-.148-.013-.299-.013-.299z"/>
        <circle cx="13.5" cy="3.5" r="2.5" fill="#4BC04E"/>
    </g>
</svg>
