<svg width="52" height="52" viewBox="0 0 52 52" fill="none" xmlns="http://www.w3.org/2000/svg">
<rect width="52" height="52" fill="white" fill-opacity="0.01"/>
<rect x="5" y="6" width="39" height="4" fill="#93BDF5"/>
<path d="M45.5 47H3.49997C1.56701 47 0 45.4223 0 43.4762V13.5238C0 11.5777 1.56701 10 3.49997 10H45.5C47.433 10 49 11.5777 49 13.5238V43.4762C49.0001 45.4223 47.4331 47 45.5 47Z" fill="#EDF3FC"/>
<path fill-rule="evenodd" clip-rule="evenodd" d="M5.78004 43.0002H43.22C43.6512 43.0002 44 42.6395 44 42.1947V14.8058C44 14.361 43.6511 14.0002 43.22 14.0002H5.78004C5.34884 14.0002 5 14.361 5 14.8058V42.1947C5 42.6395 5.34893 43.0002 5.78004 43.0002ZM42 41.0002H7V16.0002H42V41.0002Z" fill="#ABCBF5"/>
<path d="M50.25 33H39.75C38.7835 33 38 32.2539 38 31.3333V24.6667C38 23.7461 38.7835 23 39.75 23H50.25C51.2165 23 52 23.7461 52 24.6667V31.3333C52 32.2539 51.2165 33 50.25 33Z" fill="#ABCBF5"/>
<path d="M43 30C44.1046 30 45 29.1046 45 28C45 26.8954 44.1046 26 43 26C41.8954 26 41 26.8954 41 28C41 29.1046 41.8954 30 43 30Z" fill="#F2F6FC"/>
</svg>
