<svg xmlns="http://www.w3.org/2000/svg" width="18" height="18" viewBox="0 0 18 18">
    <g fill="none" fill-rule="evenodd">
        <path stroke="#388E57" d="M2.5.5v17h15V3.203L14.793.5H2.5z"/>
        <path fill="#388E57" d="M0 3h14v6H0z"/>
        <path fill="#FFF" d="M3.444 5.39l.524-1.337h.901l-.914 1.931.935 1.963H3.98l-.535-1.361-.532 1.36H2l.936-1.962-.917-1.93h.9l.525 1.336zm2.448 1.904h1.38v.653H5.106V4.053h.786v3.241zm3.296-.369c0-.159-.04-.278-.121-.36-.081-.08-.229-.165-.443-.252-.39-.148-.67-.321-.842-.52a1.045 1.045 0 0 1-.257-.705c0-.328.117-.591.35-.79C8.106 4.1 8.401 4 8.76 4c.238 0 .451.05.639.151.187.1.33.243.431.427.101.183.152.392.152.625h-.784c0-.182-.039-.32-.116-.416-.078-.095-.19-.143-.336-.143a.42.42 0 0 0-.32.122.457.457 0 0 0-.116.328c0 .107.043.203.129.29.085.086.237.176.454.268.38.138.656.306.828.506.172.2.258.453.258.762 0 .338-.108.603-.324.794-.215.19-.509.286-.88.286-.25 0-.48-.052-.687-.155a1.163 1.163 0 0 1-.485-.444 1.29 1.29 0 0 1-.175-.682h.789c0 .225.043.388.13.49.088.101.23.152.429.152.274 0 .411-.145.411-.436zm2.35-1.535l.524-1.337h.901l-.914 1.931.935 1.963h-.911l-.535-1.361-.532 1.36h-.912l.936-1.962-.917-1.93h.9l.525 1.336z"/>
    </g>
</svg>
