<svg xmlns="http://www.w3.org/2000/svg" width="32" height="32" viewBox="0 0 32 32">
    <g fill="none" fill-rule="evenodd">
        <path fill="#333C4E" fill-rule="nonzero" d="M0 2v27.981a2 2 0 0 0 2 2h27.981a2 2 0 0 0 2-2V2a2 2 0 0 0-2-2H2a2 2 0 0 0-2 2z"/>
        <path fill="#FFFFFE" d="M14 19v-6l5.196 3L14 19zm11.582-7.814a2.505 2.505 0 0 0-1.768-1.768C22.254 9 16 9 16 9s-6.254 0-7.814.418c-.86.23-1.538.908-1.768 1.768C6 12.746 6 16 6 16s0 3.254.418 4.814c.23.86.908 1.538 1.768 1.768C9.746 23 16 23 16 23s6.254 0 7.814-.418a2.504 2.504 0 0 0 1.768-1.768C26 19.254 26 16 26 16s0-3.254-.418-4.814z"/>
    </g>
</svg>
